<mxfile host="Electron" agent="Mozilla/5.0 (Windows NT 10.0; Win64; x64) AppleWebKit/537.36 (KHTML, like Gecko) draw.io/28.1.2 Chrome/138.0.7204.243 Electron/37.4.0 Safari/537.36" version="28.1.2">
  <diagram name="Page-1" id="M5KN14LnDX_lgXk43yuh">
    <mxGraphModel dx="1678" dy="1131" grid="1" gridSize="10" guides="1" tooltips="1" connect="1" arrows="1" fold="1" page="1" pageScale="1" pageWidth="1100" pageHeight="850" math="0" shadow="0">
      <root>
        <mxCell id="0" />
        <mxCell id="1" parent="0" />
        <mxCell id="2AZSGgTTGKiScR64f8am-43" value="&lt;div&gt;Reading History&lt;/div&gt;" style="text;html=1;align=left;verticalAlign=middle;whiteSpace=wrap;rounded=0;fontSize=28;fontStyle=1" parent="1" vertex="1">
          <mxGeometry x="350" y="469" width="420" height="30" as="geometry" />
        </mxCell>
        <mxCell id="2AZSGgTTGKiScR64f8am-25" value="" style="group" parent="1" vertex="1" connectable="0">
          <mxGeometry x="370" y="531" width="190" height="180" as="geometry" />
        </mxCell>
        <mxCell id="2AZSGgTTGKiScR64f8am-4" value="" style="ellipse;whiteSpace=wrap;html=1;aspect=fixed;fillColor=#000000;" parent="2AZSGgTTGKiScR64f8am-25" vertex="1">
          <mxGeometry y="29.999999999999996" width="21.599999999999998" height="21.599999999999998" as="geometry" />
        </mxCell>
        <mxCell id="2AZSGgTTGKiScR64f8am-7" value="" style="ellipse;whiteSpace=wrap;html=1;aspect=fixed;fillColor=#FF2100;" parent="2AZSGgTTGKiScR64f8am-25" vertex="1">
          <mxGeometry x="167.2" y="52.49999999999999" width="21.599999999999998" height="21.599999999999998" as="geometry" />
        </mxCell>
        <mxCell id="2AZSGgTTGKiScR64f8am-8" value="" style="ellipse;whiteSpace=wrap;html=1;aspect=fixed;fillColor=#000000;" parent="2AZSGgTTGKiScR64f8am-25" vertex="1">
          <mxGeometry y="82.5" width="21.599999999999998" height="21.599999999999998" as="geometry" />
        </mxCell>
        <mxCell id="2AZSGgTTGKiScR64f8am-9" value="" style="ellipse;whiteSpace=wrap;html=1;aspect=fixed;fillColor=#000000;" parent="2AZSGgTTGKiScR64f8am-25" vertex="1">
          <mxGeometry y="135" width="21.599999999999998" height="21.599999999999998" as="geometry" />
        </mxCell>
        <mxCell id="2AZSGgTTGKiScR64f8am-10" value="" style="ellipse;whiteSpace=wrap;html=1;aspect=fixed;fillColor=#FF2100;" parent="2AZSGgTTGKiScR64f8am-25" vertex="1">
          <mxGeometry x="167.2" y="104.99999999999999" width="21.599999999999998" height="21.599999999999998" as="geometry" />
        </mxCell>
        <mxCell id="2AZSGgTTGKiScR64f8am-11" value="" style="ellipse;whiteSpace=wrap;html=1;aspect=fixed;fillColor=#FF2100;" parent="2AZSGgTTGKiScR64f8am-25" vertex="1">
          <mxGeometry x="167.2" width="21.599999999999998" height="21.599999999999998" as="geometry" />
        </mxCell>
        <mxCell id="2AZSGgTTGKiScR64f8am-12" value="" style="ellipse;whiteSpace=wrap;html=1;aspect=fixed;fillColor=#FF2100;" parent="2AZSGgTTGKiScR64f8am-25" vertex="1">
          <mxGeometry x="167.2" y="157.5" width="21.599999999999998" height="21.599999999999998" as="geometry" />
        </mxCell>
        <mxCell id="2AZSGgTTGKiScR64f8am-13" value="" style="endArrow=none;html=1;rounded=0;entryX=0;entryY=0.5;entryDx=0;entryDy=0;strokeWidth=3;exitX=1;exitY=0.5;exitDx=0;exitDy=0;" parent="2AZSGgTTGKiScR64f8am-25" source="2AZSGgTTGKiScR64f8am-4" target="2AZSGgTTGKiScR64f8am-11" edge="1">
          <mxGeometry width="50" height="50" relative="1" as="geometry">
            <mxPoint x="53.199999999999996" y="22.5" as="sourcePoint" />
            <mxPoint x="91.19999999999999" y="14.999999999999998" as="targetPoint" />
          </mxGeometry>
        </mxCell>
        <mxCell id="2AZSGgTTGKiScR64f8am-14" value="" style="endArrow=none;html=1;rounded=0;exitX=1;exitY=0.5;exitDx=0;exitDy=0;entryX=0;entryY=0.5;entryDx=0;entryDy=0;strokeWidth=3;" parent="2AZSGgTTGKiScR64f8am-25" source="2AZSGgTTGKiScR64f8am-4" target="2AZSGgTTGKiScR64f8am-7" edge="1">
          <mxGeometry width="50" height="50" relative="1" as="geometry">
            <mxPoint x="38" y="116.25" as="sourcePoint" />
            <mxPoint x="182.39999999999998" y="90" as="targetPoint" />
          </mxGeometry>
        </mxCell>
        <mxCell id="2AZSGgTTGKiScR64f8am-15" value="" style="endArrow=none;html=1;rounded=0;exitX=1;exitY=0.5;exitDx=0;exitDy=0;entryX=0;entryY=0.5;entryDx=0;entryDy=0;strokeWidth=3;" parent="2AZSGgTTGKiScR64f8am-25" source="2AZSGgTTGKiScR64f8am-8" target="2AZSGgTTGKiScR64f8am-7" edge="1">
          <mxGeometry width="50" height="50" relative="1" as="geometry">
            <mxPoint x="167.2" y="59.99999999999999" as="sourcePoint" />
            <mxPoint x="311.59999999999997" y="82.5" as="targetPoint" />
          </mxGeometry>
        </mxCell>
        <mxCell id="2AZSGgTTGKiScR64f8am-16" value="" style="endArrow=none;html=1;rounded=0;exitX=1;exitY=0.5;exitDx=0;exitDy=0;entryX=0;entryY=0.5;entryDx=0;entryDy=0;strokeWidth=3;" parent="2AZSGgTTGKiScR64f8am-25" source="2AZSGgTTGKiScR64f8am-9" target="2AZSGgTTGKiScR64f8am-12" edge="1">
          <mxGeometry width="50" height="50" relative="1" as="geometry">
            <mxPoint x="114" y="119.99999999999999" as="sourcePoint" />
            <mxPoint x="258.4" y="90" as="targetPoint" />
          </mxGeometry>
        </mxCell>
        <mxCell id="2AZSGgTTGKiScR64f8am-17" value="" style="endArrow=none;html=1;rounded=0;exitX=1;exitY=0.5;exitDx=0;exitDy=0;entryX=0;entryY=0.5;entryDx=0;entryDy=0;strokeWidth=3;" parent="2AZSGgTTGKiScR64f8am-25" source="2AZSGgTTGKiScR64f8am-4" target="2AZSGgTTGKiScR64f8am-10" edge="1">
          <mxGeometry width="50" height="50" relative="1" as="geometry">
            <mxPoint x="22.799999999999997" y="104.99999999999999" as="sourcePoint" />
            <mxPoint x="167.2" y="127.5" as="targetPoint" />
          </mxGeometry>
        </mxCell>
        <mxCell id="2AZSGgTTGKiScR64f8am-18" value="" style="endArrow=none;html=1;rounded=0;exitX=1;exitY=0.5;exitDx=0;exitDy=0;entryX=0;entryY=0.5;entryDx=0;entryDy=0;strokeWidth=3;" parent="2AZSGgTTGKiScR64f8am-25" source="2AZSGgTTGKiScR64f8am-9" target="2AZSGgTTGKiScR64f8am-10" edge="1">
          <mxGeometry width="50" height="50" relative="1" as="geometry">
            <mxPoint x="53.199999999999996" y="150" as="sourcePoint" />
            <mxPoint x="197.6" y="172.5" as="targetPoint" />
          </mxGeometry>
        </mxCell>
        <mxCell id="gK7AgI7E6JT6_swrLAjn-5" value="" style="ellipse;whiteSpace=wrap;html=1;aspect=fixed;fillColor=#000000;" parent="1" vertex="1">
          <mxGeometry x="615" y="585" width="23.999999999999996" height="23.999999999999996" as="geometry" />
        </mxCell>
        <mxCell id="gK7AgI7E6JT6_swrLAjn-6" value="" style="ellipse;whiteSpace=wrap;html=1;aspect=fixed;fillColor=#FF2100;" parent="1" vertex="1">
          <mxGeometry x="615" y="628" width="23.999999999999996" height="23.999999999999996" as="geometry" />
        </mxCell>
        <mxCell id="gK7AgI7E6JT6_swrLAjn-7" value="&lt;span style=&quot;font-size: 22px;&quot;&gt;&lt;b&gt;Readers&lt;/b&gt;&lt;/span&gt;" style="text;html=1;align=left;verticalAlign=middle;whiteSpace=wrap;rounded=0;" parent="1" vertex="1">
          <mxGeometry x="665" y="579" width="60" height="30" as="geometry" />
        </mxCell>
        <mxCell id="gK7AgI7E6JT6_swrLAjn-9" value="&lt;font style=&quot;font-size: 22px;&quot;&gt;&lt;b style=&quot;&quot;&gt;Articles&lt;/b&gt;&lt;/font&gt;" style="text;html=1;align=left;verticalAlign=middle;whiteSpace=wrap;rounded=0;" parent="1" vertex="1">
          <mxGeometry x="665" y="625" width="60" height="30" as="geometry" />
        </mxCell>
        <mxCell id="iSGsZts2C27UwW_y3FLA-3" value="" style="shape=image;verticalLabelPosition=bottom;labelBackgroundColor=default;verticalAlign=top;aspect=fixed;imageAspect=0;image=data:image/png,iVBORw0KGgoAAAANSUhEUgAABnEAAAtJCAMAAADXO6ebAAAAAXNSR0IArs4c6QAAAARnQU1BAACxjwv8YQUAAAA8UExURdra2tnZ2f///7m5uZaWlllZWXd3d+zs7ERyxO3t7dra2v7+/gAAAO7u7tvb2/39/e/v79zc3Pz8/N3d3c+fVhwAAAANdFJOU53//////////////wBTR02TAAAACXBIWXMAADLAAAAywAEoZFrbAADfSklEQVR4Xuzd25ryuBJm6zkrN9Wb1d33f7frAWxsD8uRKCVMiBzvSRU2SDjC1peQJP9//vNfSZKe7z8GjiTpHCaOJOkcl8T5R5Kk5zJxJEnnMHEkSecwcSRJ5zBxJEnnMHEkSecwcSRJ5zBxJEnnMHEkSecwcSRJ5zBxJEnnMHEkSecwcSRJ5zBxJEnnMHEkSecwcSRJ5zBxJEnnMHEkSecwcSRJ5zBxJEnnMHEkSecwcSRJ5zBxJEnnMHEkSecwcSRJ5zBxJEnnMHEkSecwcSRJ5zBxJEnnMHEkSecwcSRJ5zBxJEnnMHEkSecwcSRJ5zBxJEnnMHEkSecwcSRJ5zBxJEnnMHEkSecwcSRJ5zBxJEnnMHEkSecwcSRJ5zBxJEnnMHEkSecwcSRJ5zBxJEnnMHEkSecwcSRJ5zBxJEnnMHEkSecwcSRJ5zBxJEnnMHEkSecwcSRJ5zBxJEnnMHGkB3x8fn19fX1/f3CHpMeZONLPPi55c2XkSL9n4iinz+/v7+sS//2ZYJG/B87XF3dJepiJo4Q+b2Fz9+rQWV7i+CJHamDiKJ3rr0zopQu9iSN1YeIomQ+8vpl9844nMnGkLkwc5bJe3Lc+edfu5rDbvYk3WuIcHoj0WiaOUjkOnBMSZ5kLO0ZLnMMDkV7LxFEqq6Wdnv622ipXuGv1NLgroeBApJcycZTJwe9wrl6ZOMuHGUZ4iRMciPRSJo4yWZbKyx/iXLZ83P7a/8WJ88/H7a+DxvjFSHQg0iuZOEpk/RJntbbfMueliTOUtzkQvR0TR4ksKyXevbpkztM/OfA2C/XbHIjejomjPFYrJV/QfHw//zcob7NQv82B6O2YOMpj9WUDT39BU/A2C/XbHIjejomjPFaJ8/ALms/5Cz8f+8bPj9tXtn3fPpaAfcv03PWY6evgdk9kmnO3fSPTgUhPYuIoj+rE2X3jJ+8wf+hgepNutRRv37jb7Fi532eaabO+T3/ZP/+bOevnsrrb5lt7jg7rvAORXsnEUR6V76qVvvETj7svwJftu29sW9Z/7rmb7rJMtZrg/qDtPW7msTFyceXnYy+edCDSS5k4ymO98nLfXnlx3S7p9xE/iz/+35dh7ribFv5lrtX4923FJ3Mdez9nIXL2j714zoFIL2XiKI914hRW5o3CsnuzeeBqoS4+YF6puf3uwcQphcbBk+SBle5z9ZQDkV7KxFEe299OxO8Dre+6tV6pl4W6uE7f78vtd48lTilwvr7L2cC1n7sXzzgQ6aVMHCWyXSSjyCmu8ZPV4npfqI/uP92Xm+8eSpyDwUu/nrlYRjj/QKSXMnGUCNfow8xZrbvT16+tH7o8jAPuTAHCzXcPJU6l9VGdfSDSS5k4SmT/jtHB36Ysd7gnwOoDXEsq/LhQT4v6fuKbeaTS2Mer+w/W75YVtj71QKSXMnGUSWFhLWVOaU1er973h3C862Cbjauf/Ver9bLxpjjhcvfbnsvHyDjhNMP288w/jPvMA5FeysRRKus1dLb/DMGya711WWjvq+92oZ4HWr8QWI0QLNTFZFjuflEY+2L/Kmn9ZtnubldPPBDppUwcpcIF+waZsyy/299OLPff33OzJq9nuW+MFuqfE+f+DLdHsNx9FTmFVy5nHYj0UiaOcilHzvYzBMvivd66Xpb3W7YvI1bL/7IxWKh/TJzV81tvLr/wuMfL+QcivZSJo2QOIme9zBY3bpblOQBWC/Xmvqvty8Zgof4pcdaBeDTnsvmeOOU7PvNApJcycZTO9ncWs2WhPXovKl6oN/dcrclLWAQL9Q+Js3keR8MsY8x3f8GBSC9l4iif3TdVXhV+p4GFellp92s61t5l+0MLdY/E2T/t/ZbJ8w5EeikTRxkVM2defUv7oPdC3Tdx5jFecCDSS5k4yqn0ly3TmvqChdrEkXowcZTVPnOm5ZebC3ov1M9JnOWOh3ofiPRSJo4SY+bctmJjSe+F2sSRejBxlBl+n3NbVDebynov1CaO1IOJo9xWq+e8/q63HJgf3Wuhflni7B/cdiDSS5k4Sm4dObelerWhbPlSnF4L9YsSp/+BSC9l4ii71RtrTJzNSl/Sa6F+duKcdiDSS5k4ym61ft6W6mX5P22hfk7ivOBApJcycZSdidPxQKSXMnGU3S5x9kv3oV4L9XMSZ7/lUK8DkV7KxFF2q8X2trJXLKi/XaiXjTfPSZyjexb0OhDppUwc5fFdfHdp9cmBXeL8tKBWLdTljVdPTxxOSL0ORHopE0dpXBfg3RK5/hvQadN+y5HfLtRMvuckzgsORHopE0dpTKvq5yZ01oGz//3HT78A+e1CzQB4UuKcfyDSS5k4SmNZVT8/bsvn5zpvloV9taav/khy2vf5vVp7f71QX4ddhnpS4px/INJLmThKY7WqFi2LPYJoWk0/PqeEWu5Yt1Bvh13vfVLinH8g0kuZOErjp8RZFs31a4OC3y7UhScwZcmzEuf0A5FeysRRGj8sv+s1s7Ckrvx2oS48gScnzukHIr2UiaM8uEpubH+1XnjfaPHbhbow6rMTpzDlSv8DkV7KxFEe0Q/8XDH3a+ri1wv1/rXB0xPn5AORXsrEUSL7hXLCD3LF8fTrhXo/6PMTZz/nov+BSC9l4iiTj91KeVVcLvHvg64sa2/tQr17xbHbvHoqy72aEufUA5FeysRRMrvM+S7mzUUxn7Z3n/+iZ/tnpZdV/rZj9+Jp+zLrvne6+yZb5un5BKcE+ebY890ROOceiPRKJo7yufzx420Z/f48jJub+5+u3O7cY2GdZ/9mkjzV2xyIFDBxJEnnMHEkSecwcSRJ5zBxJEnnMHEkSecwcSRJ5zBxJEnnMHEkSecwcSRJ5zBxJEnnMHEkSecwcSRJ5zBxJEnnMHEkSecwcSRJ5zBxJEnnMHEkSecwcSRJ5zBxJEnnMHEkSecwcSRJ5zBxJEnnMHEkSecwcSRJ5zBxJEnnMHEkSecwcSRJ5zBxJEnnMHEkSecwcSRJ5zBxJEnnMHEkSecwcSRJ5zBxJEnnMHEkSecwcSRJ5zBxJEnnMHEkSecwcSRJ5zBxJEnnMHEkSecwcSRJ5zBxJEnnMHEkSecwcSRJ5zBxJEnnMHEkSecwcSRJ5zBxJEnnMHEkSecwcSRJ5zBxJEnnMHEkSecwcSRJ5zBxJEnnMHEkSecwcSRJ5zBxJEnnMHEkSecwcSRJ5zBxJEnnMHEkSecwcSRJ5zBxJEnn6JU4H59fF9/fn9wjSdJFZeJ8fF+D5QvBcoubadfHZpckSVd1ifOxBMs6V6YYmn2vdkmSdFOXOKvXMqvEQeAYOZKkgqrEWb3EWSXOLnC2L4AkSbqoSpx1ttxDZY6hz4/lNZAvciRJVJM4t2yZYueeOFPI3G7f42f9OEmS6hLnmjWfSJwpY+aImT/LtnqYJEl1iXPLljlT5sSZ3kjjS57lYZIkXVQkzjVJPpk4TBjeliTp6vHEmV7iIHGmN9WWd9Gm3f4iR5K09XjizEFSTJwlYKZ32UwcSdLWw4lzS5LlRcyUOLuAmTb40QFJ0tbDiXMPlmLiLH/yaeJIkooeTZz7SxwkDv86Z/+LHUmSLh5MnFuOXN87M3EkSb/xYOLcgmX1v3PG3G7sE8ePR0uSth5LnNVLHBNHkvQrjyXO6iWOiSNJ+pWHEueWIsXf3HRNnH//K0kaxL9cw3/0UOJsMsTE+Qv+h6qwflU4mGKsn17mOYmzeYnzzM+qmThp8CJXjPWrwsEUY/30Ms9JnO2LlicmjtLgRa4Y61eFgynG+mkgDyTO9iVOOXGWb7nZfdGaRsSLXDHWrwoHU4z100AeSJz5n5LeKyXO7ovWNCJe5IqxflU4mGKsnwbSlDgfhYDZfdGaRsSLXDHWrwoHU4z100A6Jc7u38cxccbGi1wx1q8KB1OM9dNAWhNn+ljBkjjTrs0IGg4vcsVYvyocTDHWTwN5IHHmENlb7Zzv6wcH3gMvcsVYvyocTDHWTwN5JHG28LYZPjrgr3HeAy9yxVi/KhxMMdZPA2lOnPk7Bm63W75xQInwIleM9avCwRRj/TSQ5sSZb19e5XzMv/LxJc7oeJErxvpV4WCKsX4aSHvizC9rVvzCgeHxIleM9avCwRRj/TSQ9sTZf5bNwBkfL3LFWL8qHEwx1k8D6ZA49/fVDJz3wYtcMdavCgdTjPXTQOoT5+MaMJuPP982Tfxg9DvgRa4Y61eFgynG+mkg9YlT9Pl5C51PPzPwHniRK8b6VeFgirF+GkinxNGb4UWuGOtXhYMpxvppICaOSniRK8b6VeFgirF+GoiJoxJe5IqxflU4mGKsnwZi4qiEF7lirF8VDqYY66eBmDgq4UWuGOtXhYMpxvppICaOSniRK8b6VeFgirF+GoiJoxJe5IqxflU4mGKsnwZi4qiEF7lirF8VDqYY66eBmDgq4UWuGOtXhYMpxvppICaOSniRK8b6VeFgirF+GoiJoxJe5IqxflU4mGKsnwZi4qiEF7lirF8VDqYY66eBmDgq4UWuGOtXhYMpxvppICaOSniRK8b6VeFgirF+GoiJoxJe5IqxflU4mGKsnwZi4qiEF7lirF8VDqYY66eBmDgq4UWuGOtXhYMpxvppICaOSniRK8b6VeFgirF+GoiJoxJe5IqxflU4mGKsnwZi4qiEF7lirF8VDqYY66eBmDgq4UWuGOtXhYMpxvppICaOSniRK8b6VeFgirF+GoiJoxJe5IqxflU4mGKsnwZi4qiEF7lirF8VDqYY66eBmDgq4UWuGOtXhYMpxvppICaOSniRK8b6VeFgirF+GoiJoxJe5IqxflU4mGKsnwZi4qiEF7lirF8VDqYY66eBmDgq4UWuGOtXhYMpxvppICaOSniRK8b6VeFgirF+GoiJoxJe5IqxflU4mGKsnwZi4qiEF7lirF8VDqYY66eBmDgq4UWuGOtXhYMpxvppICaOSniRK8b6VeFgirF+GoiJoxJe5IqxflU4mGKsnwZi4qiEF7lirF8VDqYY66eBmDgq4UWuGOtXhYMpxvppICaOSniRK8b6VeFgirF+GoiJoxJe5IqxflU4mGKsnwZi4qiEF7lirF8VDqYY66eBmDgq4UWuGOtXhYMpxvppICaOSniRK8b6VeFgirF+GoiJoxJe5IqxflU4mGKsnwZi4qiEF7lirF8VDqYY66eBmDgq4UWuGOtXhYMpxvppICaOSniRK8b6VeFgirF+GoiJoxJe5IqxflU4mGKsnwZi4qiEF7lirF8VDqYY66eBmDgq4UWuGOtXhYMpxvppICaOSniRK8b6VeFgirF+GoiJoxJe5IqxflU4mGKsnwZi4qiEF7lirF8VDqYY66eBmDgq4UWuGOtXhYMpxvppICaOSniRK8b6VeFgirF+GoiJoxJe5IqxflU4mGKsnwZi4qiEF7lirF8VDqYY66eBmDgq4UWuGOtXhYMpxvppICaOSniRK8b6VeFgirF+GoiJoxJe5IqxflU4mGKsnwZi4qiEF7lirF8VDqYY66eBmDgq4UWuGOtXhYMpxvppICaOSniRK8b6VeFgirF+GoiJoxJe5IqxflU4mGKsnwZi4qiEF7lirF8VDqYY66eBmDgq4UWuGOtXhYMpxvppICaOSniRK8b6VeFgirF+GoiJoxJe5IqxflU4mGKsnwZi4qiEF7lirF8VDqYY66eBmDgq4UWuGOtXhYMpxvppICaOSniRK8b6VeFgirF+GoiJoxJe5IqxflU4mGKsnwZi4qiEF7lirF8VDqYY66eBmDgq4UWuGOtXhYMpxvppICaOSniRK8b6VeFgirF+GoiJoxJe5IqxflU4mGKsnwZi4qiEF7lirF8VDqYY66eBmDgq4UWuGOtXhYMpxvppICaOSniRK8b6VeFgirF+GoiJoxJe5IqxflU4mGKsnwZi4qiEF7lirF8VDqYY66eBmDgq4UWuGOtXhYMpxvppICaOSniRK8b6VeFgirF+GoiJoxJe5IqxflU4mGKsnwZi4qiEF7lirF8VDqYY66eBmDgq4UWuGOtXhYMpxvppICaOSniRK8b6VeFgirF+GoiJoxJe5IqxflU4mGKsnwZi4qiEF7lirF8VDqYY66eBmDgq4UWuGOtXhYMpxvppICaOSniRK8b6VeFgirF+GoiJoxJe5IqxflU4mGKsnwZi4qiEF7lirF8VDqYY66eBmDgq4UWuGOtXhYMpxvppICaOSniRK8b6VeFgirF+GoiJoxJe5IqxflU4mGKsnwZi4qiEF7lirF8VDqYY66eBmDgq4UWuGOtXhYMpxvppICaOSniRK8b6VeFgirF+GoiJoxJe5IqxflU4mGKsnwZi4qiEF7lirF8VDqYY66eBmDgq4UWuGOtXhYMpxvppICaOSniRK8b6VeFgirF+GoiJoxJe5IqxflU4mGKsnwZi4qiEF7lirF8VDqYY66eBmDgq4UWuGOtXhYMpxvppICaOSniRK8b6VeFgirF+GoiJoxJe5IqxflU4mGKsnwZi4qiEF7lirF8VDqYY66eBmDgq4UWuGOtXhYMpxvppII8nzsfn59fF9+cnd1333nZ+l3ZqOLzIFWP9qnAwxVg/DeTRxPm4Bsrk+wN7b3FzsFMD4kWuGOtXhYMpxvppII8lzsf3KlKusbLZjb3bnRoRL3LFWL8qHEwx1k8DeShxNi9w9qnCODJyxseLXDHWrwoHU4z100AeSpz1m2az5b2zXeCsd2pMvMgVY/2qcDDFWD8N5PHEuf5+5vMeL/fXMfMLoM+PJZp8kTM6XuSKsX5VOJhirJ8G8mji3D8PcI+ceed087b/Hj/zXo2JF7lirF8VDqYY66eBPJg4q7fJkDhTxswRMwWSL3IGx4tcMdavCgdTjPXTQB5KnI35Rc4UQtMbafdImvauHqAB8SJXjPWrwsEUY/00kPrEmX9XM2UME4a3NSRe5IqxflU4mGKsnwbSmjjTm2rLu2jTSyB/kTM2XuSKsX5VOJhirJ8G8vvEud3Cr3Huu02csfEiV4z1q8LBFGP9NJD6xJkCZ0qcXcBMG/zowNh4kSvG+lXhYIqxfhpIdeLMn38++OCAifMeeJErxvpV4WCKsX4aSG3izIEzJ8r0a5slcXa/2NGIeJErxvpV4WCKsX4aSF3iLN/oiT8INXHeDC9yxVi/KhxMMdZPA3k0cfDlafzzm13i+PHosfEiV4z1q8LBFGP9NJAHE2f77dH7byAwcd4ML3LFWL8qHEwx1k8D+VXirP6hz2mLifNmeJErxvpV4WCKsX4ayIOJc/9M9OT+xZ7T7T6J8z//l5LgRa4Y61eFgynG+ull/ifX8B89mji7fwRn+yU3fRLn3/8qCV7kirF+VTiYYqyfXuZfruE/ejRxbj6Wfx9nCpmun1UzcdLgRa4Y61eFgynG+ullnp04m9/oXG92TZx//reS4EWuGOtXhYMpxvrpZbiC/6w6cZbIuX58YPfFnbsvWtOIeJErxvpV4WCKsX4aSH3i3H+lc30Zs0uc3RetaUS8yBVj/apwMMVYPw3kF4kzf3n0NXF2AbP7ojWNiBe5YqxfFQ6mGOungXRKnN2/j2PijI0XuWKsXxUOphjrp4G0Js708eglcaadq/trQLzIFWP9qnAwxVg/DaQhcW7vpCFh/ODAe+BFrhjrV4WDKcb6aSD1iXP/rNrmD3LmiPHXOO+BF7lirF8VDqYY66eBPJI4H5u/rrn/Dei8c50xLd84oER4kSvG+lXhYIqxfhrII4lzed3y/Xl9FfMxv6W2vIyZE+hztdeXOKPjRa4Y61eFgynG+mkgjybOzv1lz/Zrpbf7NCpe5IqxflU4mGKsnwby28RZhcput4EzPl7kirF+VTiYYqyfBvJI4uy/OHr7WTTsNnDeAC9yxVi/KhxMMdZPA3kocf5ZfWX0xSd+T/Ox3u0Ho98BL3LFWL8qHEwx1k8DeSxxrqFzi5Vvxs1t75RJxZ0aDy9yxVi/KhxMMdZPA3k4cfSn8CJXjPWrwsEUY/00EBNHJbzIFWP9qnAwxVg/DcTEUQkvcsVYvyocTDHWTwMxcVTCi1wx1q8KB1OM9dNATByV8CJXjPWrwsEUY/00EBNHJbzIFWP9qnAwxVg/DcTEUQkvcsVYvyocTDHWTwMxcVTCi1wx1q8KB1OM9dNATByV8CJXjPWrwsEUY/00EBNHJbzIFWP9qnAwxVg/DcTEUQkvcsVYvyocTDHWTwMxcVTCi1wx1q8KB1OM9dNATByV8CJXjPWrwsEUY/00EBNHJbzIFWP9qnAwxVg/DcTEUQkvcsVYvyocTDHWTwMxcVTCi1wx1q8KB1OM9dNATByV8CJXjPWrwsEUY/00EBNHJbzIFWP9qnAwxVg/DcTEUQkvcsVYvyocTDHWTwMxcVTCi1wx1q8KB1OM9dNATByV8CJXjPWrwsEUY/00EBNHJbzIFWP9qnAwxVg/DcTEUQkvcsVYvyocTDHWTwMxcVTCi1wx1q8KB1OM9dNATByV8CJXjPWrwsEUY/00EBNHJbzIFWP9qnAwxVg/DcTEUQkvcsVYvyocTDHWTwMxcVTCi1wx1q8KB1OM9dNATByV8CJXjPWrwsEUY/00EBNHJbzIFWP9qnAwxVg/DcTEUQkvcsVYvyocTDHWTwMxcVTCi1wx1q8KB1OM9dNATByV8CJXjPWrwsEUY/00EBNHJbzIFWP9qnAwxVg/DcTEUQkvcsVYvyocTDHWTwMxcVTCi1wx1q8KB1OM9dNATByV8CJXjPWrwsEUY/00EBNHJbzIFWP9qnAwxVg/DcTEUQkvcsVYvyocTDHWTwMxcVTCi1wx1q8KB1OM9dNATByV8CJXjPWrwsEUY/00EBNHJbzIFWP9qnAwxVg/DcTEUQkvcsVYvyocTDHWTwMxcVTCi1wx1q8KB1OM9dNATByV8CJXjPWrwsEUY/00EBNHJbzIFWP9qnAwxVg/DcTEUQkvcsVYvyocTDHWTwMxcVTCi1wx1q8KB1OM9dNATByV8CJXjPWrwsEUY/00EBNHJbzIFWP9qnAwxVg/DcTEUQkvcsVYvyocTDHWTwMxcVTCi1wx1q8KB1OM9dNATByV8CJXjPWrwsEUY/00EBNHJbzIFWP9qnAwxVg/DcTEUQkvcsVYvyocTDHWTwMxcVTCi1wx1q8KB1OM9dNATByV8CJXjPWrwsEUY/00EBNHJbzIFWP9qnAwxVg/DcTEUQkvcsVYvyocTDHWTwMxcVTCi1wx1q8KB1OM9dNATByV8CJXjPWrwsEUY/00EBNHJbzIFWP9qnAwxVg/DcTEUQkvcsVYvyocTDHWTwMxcVTCi1wx1q8KB1OM9dNATByV8CJXjPWrwsEUY/00EBNHJbzIFWP9qnAwxVg/DcTEUQkvcsVYvyocTDHWTwMxcVTCi1wx1q8KB1OM9dNATByV8CJXjPWrwsEUY/00EBNHJbzIFWP9qnAwxVg/DcTEUQkvcsVYvyocTDHWTwMxcVTCi1wx1q8KB1OM9dNATByV8CJXjPWrwsEUY/00EBNHJbzIFWP9qnAwxVg/DcTEUQkvcsVYvyocTDHWTwMxcVTCi1wx1q8KB1OM9dNATByV8CJXjPWrwsEUY/00EBNHJbzIFWP9qnAwxVg/DcTEUQkvcsVYvyocTDHWTwMxcVTCi1wx1q8KB1OM9dNATByV8CJXjPWrwsEUY/00EBNHJbzIFWP9qnAwxVg/DcTEUQkvcsVYvyocTDHWTwMxcVTCi1wx1q8KB1OM9dNATByV8CJXjPWrwsEUY/00EBNHJbzIFWP9qnAwxVg/DcTEUQkvcsVYvyocTDHWTwMxcVTCi1wx1q8KB1OM9dNATByV8CJXjPWrwsEUY/00EBNHJbzIFWP9qnAwxVg/DcTEUQkvcsVYvyocTDHWTwMxcVTCi1wx1q8KB1OM9dNATByV8CJXjPWrwsEUY/00EBNHJbzIFWP9qnAwxVg/DcTEUQkvcsVYvyocTDHWTwMxcVTCi1wx1q8KB1OM9dNATByV8CJXjPWrwsEUY/00EBNHJbzIFWP9qnAwxVg/DcTEUQkvcsVYvyocTDHWTwMxcVTCi1wx1q8KB1OM9dNATByV8CJXjPWrwsEUY/00EBNHJbzIFWP9qnAwxVg/DcTEUQkvcsVYvyocTDHWTwMxcVTCi1wx1q8KB1OM9dNATByV8CJXjPWrwsEUY/00EBNHJbzIFWP9qnAwxVg/DcTEUQkvcsVYvyocTDHWTwMxcVTCi1wx1q8KB1OM9dNATByV8CJXjPWrwsEUY/00kIrE+fj8uvj+/uSen3ZqOLzIFWP9qnAwxVg/DeTRxJkS5WYXK5udH9ipAfEiV4z1q8LBFGP9NJAHE+d7FSnXWIn2bndqRLzIFWP9qnAwxVg/DeShxPnYJgpThXFk5IyPF7lirF8VDqYY66eBPJQ46zfNZssba7vA+fryjbXR8SJXjPWrwsEUY/00kIcSp5Apy+uY+QXQ58cSTb7IGR0vcsVYvyocTDHWTwN5PHEuifLP5xI+887p5u1lzT1+1g/XeHiRK8b6VeFgirF+GsijiXOPkHvkTFumjJn3T7t9kTM4XuSKsX5VOJhirJ8G8lDifK5+MXP/nc6UMdPt+x2mvff7a0i8yBVj/apwMMVYPw3kocTZQOIwYXhbQ+JFrhjrV4WDKcb6aSCtiTO9qba8iza9reYvcsbGi1wx1q8KB1OM9dNAOiXOEjDTu2wmzth4kSvG+lXhYIqxfhrI7xPn9pubXcBMG/zowNh4kSvG+lXhYIqxfhpIdeLcv3/gdpMfHDBx3gMvcsVYvyocTDHWTwOpTpz7Z9VuN6df2yyJs/vFjkbEi1wx1q8KB1OM9dNAqhNnDpwpY0yc98SLXDHWrwoHU4z100BqEwdvqm2/cWB9h/sGjYgXuWKsXxUOphjrp4HUJs4cOHPEmDjviRe5YqxfFQ6mGOungVQmzvwdN/c3zUyc98SLXDHWrwoHU4z100DqEuf+nhq/1KZP4vzP/6UkeJErxvpV4WCKsX56mf/JNfxHVYmzD5y+ifPvf5UEL3LFWL8qHEwx1k8v8y/X8B9VJc4cOKsPonX9rJqJkwYvcsVYvyocTDHWTy/z3MTZ/RKnd+L887+VBC9yxVi/KhxMMdZPL8MV/GcViVMKnP0Xd+6+aE0j4kWuGOtXhYMpxvppII8nzv2fYltez5QSZ/dFaxoRL3LFWL8qHEwx1k8DeThxCp8auNgFzO6L1jQiXuSKsX5VOJhirJ8G8mjiHATO/os7d7/Y0Yh4kSvG+lXhYIqxfhrIg4lzFDjz59eWxJnut7mPhsOLXDHWrwoHU4z100AeS5zjwGHC+MGB98CLXDHWrwoHU4z100AeS5z5UwP7wOFHB/w1znvgRa4Y61eFgynG+mkgDyXOHDilVy7zy59bxrR844AS4UWuGOtXhYMpxvppII8kzv09ta3pdzerOPqY/7k2X+KMjhe5YqxfFQ6mGOungbQnTmHv775wQInwIleM9avCwRRj/TSQhsSZ3zq7/zvUMwNnfLzIFWP9qnAwxVg/DaRD4izfRnBj4LwBXuSKsX5VOJhirJ8G8kjiMFImq+9SW9+h9PECjYYXuWKsXxUOphjrp4E8lDg/+/y8hc6nnxl4D7zIFWP9qnAwxVg/DaRT4ujN8CJXjPWrwsEUY/00EBNHJbzIFWP9qnAwxVg/DcTEUQkvcsVYvyocTDHWTwMxcVTCi1wx1q8KB1OM9dNATByV8CJXjPWrwsEUY/00EBNHJbzIFWP9qnAwxVg/DcTEUQkvcsVYvyocTDHWTwMxcVTCi1wx1q8KB1OM9dNATByV8CJXjPWrwsEUY/00EBNHJbzIFWP9qnAwxVg/DcTEUQkvcsVYvyocTDHWTwMxcVTCi1wx1q8KB1OM9dNATByV8CJXjPWrwsEUY/00EBNHJbzIFWP9qnAwxVg/DcTEUQkvcsVYvyocTDHWTwMxcVTCi1wx1q8KB1OM9dNATByV8CJXjPWrwsEUY/00EBNHJbzIFWP9qnAwxVg/DcTEUQkvcsVYvyocTDHWTwMxcVTCi1wx1q8KB1OM9dNATByV8CJXjPWrwsEUY/00EBNHJbzIFWP9qnAwxVg/DcTEUQkvcsVYvyocTDHWTwMxcVTCi1wx1q8KB1OM9dNATByV8CJXjPWrwsEUY/00EBNHJbzIFWP9qnAwxVg/DcTEUQkvcsVYvyocTDHWTwMxcVTCi1wx1q8KB1OM9dNATByV8CJXjPWrwsEUY/00EBNHJbzIFWP9qnAwxVg/DcTEUQkvcsVYvyocTDHWTwMxcVTCi1wx1q8KB1OM9dNATByV8CJXjPWrwsEUY/00EBNHJbzIFWP9qnAwxVg/DcTEUQkvcsVYvyocTDHWTwMxcVTCi1wx1q8KB1OM9dNATByV8CJXjPWrwsEUY/00EBNHJbzIFWP9qnAwxVg/DcTEUQkvcsVYvyocTDHWTwMxcVTCi1wx1q8KB1OM9dNATByV8CJXjPWrwsEUY/00EBNHJbzIFWP9qnAwxVg/DcTEUQkvcsVYvyocTDHWTwMxcVTCi1wx1q8KB1OM9dNATByV8CJXjPWrwsEUY/00EBNHJbzIFWP9qnAwxVg/DcTEUQkvcsVYvyocTDHWTwMxcVTCi1wx1q8KB1OM9dNATByV8CJXjPWrwsEUY/00EBNHJbzIFWP9qnAwxVg/DcTEUQkvcsVYvyocTDHWTwMxcVTCi1wx1q8KB1OM9dNATByV8CJXjPWrwsEUY/00EBNHJbzIFWP9qnAwxVg/DcTEUQkvcsVYvyocTDHWTwMxcVTCi1wx1q8KB1OM9dNATByV8CJXjPWrwsEUY/00EBNHJbzIFWP9qnAwxVg/DcTEUQkvcsVYvyocTDHWTwMxcVTCi1wx1q8KB1OM9dNATByV8CJXjPWrwsEUY/00EBNHJbzIFWP9qnAwxVg/DcTEUQkvcsVYvyocTDHWTwMxcVTCi1wx1q8KB1OM9dNATByV8CJXjPWrwsEUY/00EBNHJbzIFWP9qnAwxVg/DcTEUQkvcsVYvyocTDHWTwMxcVTCi1wx1q8KB1OM9dNATByV8CJXjPWrwsEUY/00EBNHJbzIFWP9qnAwxVg/DcTEUQkvcsVYvyocTDHWTwMxcVTCi1wx1q8KB1OM9dNATByV8CJXjPWrwsEUY/00EBNHJbzIFWP9qnAwxVg/DcTEUQkvcsVYvyocTDHWTwMxcVTCi1wx1q8KB1OM9dNATByV8CJXjPWrwsEUY/00EBNHJbzIFWP9qnAwxVg/DcTEUQkvcsVYvyocTDHWTwMxcVTCi1wx1q8KB1OM9dNATByV8CJXjPWrwsEUY/00EBNHJbzIFWP9qnAwxVg/DcTEUQkvcsVYvyocTDHWTwMxcVTCi1wx1q8KB1OM9dNATByV8CJXjPWrwsEUY/00EBNHJbzIFWP9qnAwxVg/DcTEUQkvcsVYvyocTDHWTwMxcVTCi1wx1q8KB1OM9dNATByV8CJXjPWrwsEUY/00EBNHJbzIFWP9qnAwxVg/DcTEUQkvcsVYvyocTDHWTwMxcVTCi1wx1q8KB1OM9dNATByV8CJXjPWrwsEUY/00EBNHJbzIFWP9qnAwxVg/DcTEUQkvcsVYvyocTDHWTwMxcVTCi1wx1q8KB1OM9dNATByV8CJXjPWrwsEUY/00EBNHJbzIFWP9qnAwxVg/DcTEUQkvcsVYvyocTDHWTwMxcVTCi1wx1q8KB1OM9dNATByV8CJXjPWrwsEUY/00EBNHJbzIFWP9qnAwxVg/DcTEUQkvcsVYvyocTDHWTwMxcVTCi1wx1q8KB1OM9dNATByV8CJXjPWrwsEUY/00EBNHJbzIFWP9qnAwxVg/DcTEUQkvcsVYvyocTDHWTwMxcVTCi1wx1q8KB1OM9dNATByV8CJXjPWrwsEUY/00kF6J8/H5dfH9/ck9GhEvcsVYvyocTDHWTwOpS5yPW6xw8z+3uLn5/uBejYcXuWKsXxUOphjrp4HUJM7H9xQqzJR5+5w52K3x8CJXjPWrwsEUY/00kIrEWV7IIHEQOEbOG+BFrhjrV4WDKcb6aSAPJ879Bc4ucXaBwztoPLzIFWP9qnAwxVg/DeTRxFn/pmYbKLff7Xx9fX4s9/JFzuh4kSvG+lXhYIqxfhrIY4kzp8pkkzibbff4Wd9D4+FFrhjrV4WDKcb6aSCPJc7mFc42caaMmSNmeovNFzmD40WuGOtXhYMpxvppIFWJM7+CWSfOvGu+Pd1ldQ8NiBe5YqxfFQ6mGOungVQkzgfeQbthwvC2hsSLXDHWrwoHU4z100AeTpxryuwTZ3rZs7yLNr2t5i9yxsaLXDHWrwoHU4z100AeS5x/pow5TJwlYKZ32UycsfEiV4z1q8LBFGP9NJAHE2eyT5xdwEwb/OjA2HiRK8b6VeFgirF+GkinxFm2mDhvgRe5YqxfFQ6mGOungbQmzvRrm2XL7hc7GhEvcsVYvyocTDHWTwMxcVTCi1wx1q8KB1OM9dNAWhNnt2X+m53lLhoQL3LFWL8qHEwx1k8DMXFUwotcMdavCgdTjPXTQEwclfAiV4z1q8LBFGP9NJBUifM//5eS4EWuGOtXhYMpxvrpZf4n1/AfpUqcf/+rJHiRK8b6VeFgirF+epl/uYb/qDVxun5WLU4cnneKsX5VOJhirF8VDqYY61eFgynG+m0Nnjj//O8IS6EY61eFgynG+lXhYIqxflU4mGKs3xZX8J91SpzlW252X7TWDUuhGOtXhYMpxvpV4WCKsX5VOJhirF+r7omz+6K1blgKxVi/KhxMMdavCgdTjPWrwsEUY/1atSbOLmB2X7TWDUuhGOtXhYMpxvpV4WCKsX5VOJhirF+rTomz+/dxTJyXY/2qcDDFWL8qHEwx1q8KB1OM9WvVmjjTpiVxprus7tELS6EY61eFgynG+lXhYIqxflU4mGKsX6tOiXNPmOd9cMBTpRLrV4WDKcb6VeFgirF+VTiYYqxfq+bEwUcHnvdrHE+VSqxfFQ6mGOtXhYMpxvpV4WCKsX6tmhNn/o6B27aWbxz4CUuhGOtXhYMpxvpV4WCKsX5VOJhirF+rxxJnDpKN6WXN9CLncvNjeoXzlJc4niqVWL8qHEwx1q8KB1OM9avCwRRj/Vo1JM70aYHCvt994cBPWArFWL8qHEwx1q8KB1OM9avCwRRj/Vo9ljjza5eNOVd2O58TOJ4qlVi/KhxMMdavCgdTjPWrwsEUY/1adUic+/tq3N4ZS6EY61eFgynG+lXhYIqxflU4mGKsX6vHEmf+yMDG6rvU1pnzjA9GX7EUirF+VTiYYqxfFQ6mGOtXhYMpxvq1ejBxfvL5eQudz6d8ZuCGpVCM9avCwRRj/apwMMVYvyocTDHWr1WnxDkDS6EY61eFgynG+lXhYIqxflU4mGKsXysT522xflU4mGKsXxUOphjrV4WDKcb6tTJx3hbrV4WDKcb6VeFgirF+VTiYYqxfKxPnbbF+VTiYYqxfFQ6mGOtXhYMpxvq1MnHeFutXhYMpxvpV4WCKsX5VOJhirF8rE+dtsX5VOJhirF8VDqYY61eFgynG+rUycd4W61eFgynG+lXhYIqxflU4mGKsXysT522xflU4mGKsXxUOphjrV4WDKcb6tTJx3hbrV4WDKcb6VeFgirF+VTiYYqxfKxPnbbF+VTiYYqxfFQ6mGOtXhYMpxvq1MnHeFutXhYMpxvpV4WCKsX5VOJhirF8rE+dtsX5VOJhirF8VDqYY61eFgynG+rUycd4W61eFgynG+lXhYIqxflU4mGKsXysT522xflU4mGKsXxUOphjrV4WDKcb6tTJx3hbrV4WDKcb6VeFgirF+VTiYYqxfKxPnbbF+VTiYYqxfFQ6mGOtXhYMpxvq1MnHeFutXhYMpxvpV4WCKsX5VOJhirF8rE+dtsX5VOJhirF8VDqYY61eFgynG+rUycd4W61eFgynG+lXhYIqxflU4mGKsXysT522xflU4mGKsXxUOphjrV4WDKcb6tTJx3hbrV4WDKcb6VeFgirF+VTiYYqxfKxPnbbF+VTiYYqxfFQ6mGOtXhYMpxvq1MnHeFutXhYMpxvpV4WCKsX5VOJhirF8rE+dtsX5VOJhirF8VDqYY61eFgynG+rUycd4W61eFgynG+lXhYIqxflU4mGKsXysT522xflU4mGKsXxUOphjrV4WDKcb6tTJx3hbrV4WDKcb6VeFgirF+VTiYYqxfKxPnbbF+VTiYYqxfFQ6mGOtXhYMpxvq1MnHeFutXhYMpxvpV4WCKsX5VOJhirF8rE+dtsX5VOJhirF8VDqYY61eFgynG+rUycd4W61eFgynG+lXhYIqxflU4mGKsXysT522xflU4mGKsXxUOphjrV4WDKcb6tTJx3hbrV4WDKcb6VeFgirF+VTiYYqxfKxPnbbF+VTiYYqxfFQ6mGOtXhYMpxvq1MnHeFutXhYMpxvpV4WCKsX5VOJhirF8rE+dtsX5VOJhirF8VDqYY61eFgynG+rUycd4W61eFgynG+lXhYIqxflU4mGKsXysT522xflU4mGKsXxUOphjrV4WDKcb6tTJx3hbrV4WDKcb6VeFgirF+VTiYYqxfKxPnbbF+VTiYYqxfFQ6mGOtXhYMpxvq1MnHeFutXhYMpxvpV4WCKsX5VOJhirF8rE+dtsX5VOJhirF8VDqYY61eFgynG+rUycd4W61eFgynG+lXhYIqxflU4mGKsXysT522xflU4mGKsXxUOphjrV4WDKcb6tTJx3hbrV4WDKcb6VeFgirF+VTiYYqxfKxPnbbF+VTiYYqxfFQ6mGOtXhYMpxvq1MnHeFutXhYMpxvpV4WCKsX5VOJhirF8rE+dtsX5VOJhirF8VDqYY61eFgynG+rUycd4W61eFgynG+lXhYIqxflU4mGKsXysT522xflU4mGKsXxUOphjrV4WDKcb6tTJx3hbrV4WDKcb6VeFgirF+VTiYYqxfKxPnbbF+VTiYYqxfFQ6mGOtXhYMpxvq1MnHeFutXhYMpxvpV4WCKsX5VOJhirF8rE+dtsX5VOJhirF8VDqYY61eFgynG+rUycd4W61eFgynG+lXhYIqxflU4mGKsXysT522xflU4mGKsXxUOphjrV4WDKcb6tTJx3hbrV4WDKcb6VeFgirF+VTiYYqxfKxPnbbF+VTiYYqxfFQ6mGOtXhYMpxvq1MnHeFutXhYMpxvpV4WCKsX5VOJhirF8rE+dtsX5VOJhirF8VDqYY61eFgynG+rUycd4W61eFgynG+lXhYIqxflU4mGKsXysT522xflU4mGKsXxUOphjrV4WDKcb6tTJx3hbrV4WDKcb6VeFgirF+VTiYYqxfKxPnbbF+VTiYYqxfFQ6mGOtXhYMpxvq1MnHeFutXhYMpxvpV4WCKsX5VOJhirF8rE+dtsX5VOJhirF8VDqYY61eFgynG+rUycd4W61eFgynG+lXhYIqxflU4mGKsXysT522xflU4mGKsXxUOphjrV4WDKcb6tTJx3hbrV4WDKcb6VeFgirF+VTiYYqxfKxPnbbF+VTiYYqxfFQ6mGOtXhYMpxvq1MnHeFutXhYMpxvpV4WCKsX5VOJhirF8rE+dtsX5VOJhirF8VDqYY61eFgynG+rUycd4W61eFgynG+lXhYIqxflU4mGKsXysT522xflU4mGKsXxUOphjrV4WDKcb6tTJx3hbrV4WDKcb6VeFgirF+VTiYYqxfKxPnbbF+VTiYYqxfFQ6mGOtXhYMpxvq1MnHeFutXhYMpxvpV4WCKsX5VOJhirF8rE+dtsX5VOJhirF8VDqYY61eFgynG+rUycd4W61eFgynG+lXhYIqxflU4mGKsXysT522xflU4mGKsXxUOphjrV4WDKcb6tTJx3hbrV4WDKcb6VeFgirF+VTiYYqxfKxPnbbF+VTiYYqxfFQ6mGOtXhYMpxvq1MnHeFutXhYMpxvpV4WCKsX5VOJhirF8rE+dtsX5VOJhirF8VDqYY61eFgynG+rUycd4W61eFgynG+lXhYIqxflU4mGKsXysT522xflU4mGKsXxUOphjrV4WDKcb6tTJx3hbrV4WDKcb6VeFgirF+VTiYYqxfKxPnbbF+VTiYYqxfFQ6mGOtXhYMpxvq1MnHeFutXhYMpxvpV4WCKsX5VOJhirF8rE+dtsX5VOJhirF8VDqYY61eFgynG+rUycd4W61eFgynG+lXhYIqxflU4mGKsXysT522xflU4mGKsXxUOphjrV4WDKcb6tTJx3hbrV4WDKcb6VeFgirF+VTiYYqxfKxPnbbF+VTiYYqxfFQ6mGOtXhYMpxvq1MnHeFutXhYMpxvpV4WCKsX5VOJhirF8rE+dtsX5VOJhirF8VDqYY61eFgynG+rUycd4W61eFgynG+lXhYIqxflU4mGKsXysT522xflU4mGKsXxUOphjrV4WDKcb6tTJx3hbrV4WDKcb6VeFgirF+VTiYYqxfKxPnbbF+VTiYYqxfFQ6mGOtXhYMpxvq1MnHeFutXhYMpxvpV4WCKsX5VOJhirF8rE+dtsX5VOJhirF8VDqYY61eFgynG+rUycd4W61eFgynG+lXhYIqxflU4mGKsXysT522xflU4mGKsXxUOphjrV4WDKcb6tTJx3hbrV4WDKcb6VeFgirF+VTiYYqxfKxPnbbF+VTiYYqxfFQ6mGOtXhYMpxvq1MnHeFutXhYMpxvpV4WCKsX5VOJhirF8rE+dtsX5VOJhirF8VDqYY61eFgynG+rUycd4W61eFgynG+lXhYIqxflU4mGKsXysT522xflU4mGKsXxUOphjrV4WDKcb6teqVOJ/fXxffnx/c0w1LoRjrV4WDKcb6VeFgirF+VTiYYqxfqy6J83GLm5tP7u2FpVCM9avCwRRj/apwMMVYvyocTDHWr1WPxPlY5c3Fk17msBSKsX5VOJhirF8VDqYY61eFgynG+rXqkDgMnGdFDkuhGOtXhYMpxvpV4WCKsX5VOJhirF+r9sTZB87XN+/TBUuhGOtXhYMpxvpV4WCKsX5VOJhirF+r9sSZfofz/bn6fc5TXuSwFIqxflU4mGKsXxUOphjrV4WDKcb6tWpOnM/Ny5o5cnivHlgKxVi/KhxMMdavCgdTjPWrwsEUY/1aNSfOlDHTrfkttme8yGEpFGP9qnAwxVi/KhxMMdavCgdTjPVr1Zw4m5c495c8z/iINEuhGOtXhYMpxvpV4WCKsX5VOJhirF+r1sRhwvB2RyyFYqxfFQ6mGOtXhYMpxvpV4WCKsX6tWhNnelPt/i7a/Lba9l5dsBSKsX5VOJhirF8VDqYY61eFgynG+rXqlDjLBhMnC9avCgdTjPWrwsEUY/2qcDDFWL9WrYmzC5hpwxM+OsBSKMb6VeFgirF+VTiYYqxfFQ6mGOvXqk/irP7k08TJgvWrwsEUY/2qcDDFWL8qHEwx1q9VY+JMv7ZZJQ5/sdMPS6EY61eFgynG+lXhYIqxflU4mGKsXysT522xflU4mGKsXxUOphjrV4WDKcb6tWpMnO03DlxMifOEj0ezFIqxflU4mGKsXxUOphjrV4WDKcb6tTJx3hbrV4WDKcb6VeFgirF+VTiYYqxfKxPnbbF+VTiYYqxfFQ6mGOtXhYMpxvq1SpU4//5XkjSIf7mG/8jEkST9xumJ0/ezaiaOJA1j8MSRJL2xPomz+pab3RetSZJ00T1xdhskSbpoTJx9wNxur95mkyTpolPi8N/HMXEkSdCaONPHo++J88R/A1SSNLROiXNPGD84IEkqa00cfnTgdss31SRJ1Jo484uaKWNavnFAkvTWmhNnfpHz/fHPP5/b+JEkadGcOPPLmjW/cECStNOeOPMHpA0cSVKkQ+LM76sZOJKkQIfEuX9E+ury+xxJkna6JM4/H5+30Pn2Q2qSpAN9EkeSpJ+YOJKkc5g4kqRzmDiSpHOYOJKkc5g4kqRzmDiSpHOYOJKkc5g4kqRzmDiSpHOYOJKkc5g4kqRzmDiSpHOYOJKkc5g4kqRzmDiSpHOYOJKkc5g4kqRzmDiSpHOYOJKkc5g4kqRzmDiSpHOYOJKkc5g4kqRzmDiSpHOYOJKkc5g4kqRzmDiSpHOYOJKkc5g4kqRzmDiSpHOYOJKkc5g4kqRzmDiSpHO8SeJ8fn9/fX19fX5+cI/+oM/LyfDNrXrYx/VyOr6Yfto/sI/P67F9f35yj3p4h8S5nf6ThJlzXf8uT22z9RaRm03DmzvxvWnCx37Tc00F/0ORs74CLotla7GnkQ6H+Wn/sOZr9VZH7n2566V0f35DpuIbJM76JLnIdhksZ8nm/Mj5ZNssC996661BJ67/c+5x+9viJdAa8PMpezTIT/tHtfnZNeMZtH16F8NlzviJs7/aeI8XWz3B9RW63zK+5UjX1+qrEifbifA8+2ugrd5zohwtZz/tH9WqfDkPkM/vYrAlZPjE2bzOvLnvur0h++qOrJaD9Spw2/LqJ9fXcqTrA3t24tx+a7Ma38S5aCg4EmV3Ib1p4uAVzvoAd+fYa/D5XY21hgyfOPNZcjk3Pm5X3rxrug5f3ZD1crB6LrsNb2B1pKuL89mJczDhu62HgWLitBz/NMJ0a38hbfe/iTlHr9F6+/zAvYTTnu0Dzjc9Q+C9Uhs9ceZrbb4aLmcN9r16Ud8sB8vmHE+ur/WRLuvd6Ynzz/WTiw0L7mimU+xago/llxG/P7muY9xf1OwvpO3+NzFV7X4ifadNnGvhp5+vMzytGqMnzv6XxMtL3/2F8hKbxFmeDG+/g/WRLi05P3H+mnXi4HV/D0kupCfbfxziY/n/bYFfZvsU779R4N0ye5PEKV5bSS6UacHlyZHjyfV1Oyb2xMR5NiTOPfm39/q1JBfSk83rN7dfocCvMj1FvPgsL39JjZ44aMFGcKFc3xXY9Gn6G9LjPyK9vrH7vd87veG72343LbjTs8Hr9O3DbmOVBvtxlhSmY7r9B+9ubq/W6S2Bwp883PYUdiwPws7bbL9fDY6fyyiYOPsf18MTfNpVOLlvggvpMcfndSIs4kaw7/K4zRuM09+QHv8R6fWE41kcn/qT29NYOrF/iyeaff7j1miGp3vbxJl23F3vcS34x/2KXAo/vwK5Wp0+8wPuP03w54nNA692T2Vaz7gO7+69/UPWZftjs6QwPbfp6c7HsE+cpZr8bcD+o4fz45a3rddbNxvn7dOVu7rD5pLcbjl+LuPgYrlPnKMTHOfdvOe2NF1vrB53dd242j89fD3kdktwXqfCInLH3e0cm/9vOrr7vbdn8HK89wcs9Xj01F9MO+6Pm4Za7ng0+8X6OF7XhzdJnF1vdu27lvj2v/edc9l3d7539HZze8Gu5to9sNTLec3D/tut5ZzDWLWzpHB7bvdsmLbuFn0E6Oq620frPAov++lRuwes7nutEReE+ykz3Tp+LgPZLZY4mt0ZdFjy6byabpUeurqQrjWc7rA6Idfl3w2wu1LTmM+w3SkQnGOf951Hd8ZPNp/behz24WbZO5m23x/GxnOQ41Vk2XGy0RNnLjFP5OhCuf/YVr4mVnvmB2wbee934YH7Z3JfcOd7Tw/f3CiMdR9nt+diN0sKt+f2gR+9mDi8LHY/sm1d9+733MbbbV8m3CTOsiBO5Zyezu7xu/VmBFx4sDIVzqB7PZjkm8eXHnuQOKslbKrpbfLd43OeuetnylNgd45cNk4Bci/f0X3ve6YHbOsRXBQXfCY/JU5hED509rIfWUdPnOWC2XZnd6KvLpR7X25V3931YhMLbOQ8Cbdf7a6o+4I73WHzY+T8rAtPYj4nHpslhdtz+7h35bYViVM4nmlPoQhTiUp71oGyWCa83WG3GK937h/+wh/+GuwOcjqWg0X/Yj7xuH2ztfRgJs5uFdzs3D38hWvdT+7PEBfX7iS5bJxO6s22wl2X0fiAm7kYhTrt1rRCrbeN5+CrXbufLF7WhdETZ92pTX9W25ed2LZddS63ll8WcJTP1Ruw00Srdq/eq96dJfcFd36ut3ts7z09/jrW/Bxu+x6cJYX7c1sdDhNnXYXpl5zzvvWe6f+nfbcHfX7sHsQLab3x1t5pxzT79ifw4LkMhYkzH9ftVnSCr8+u6+l127y6z3z/2fpCWg9xX8KmyW9P5vi8zme1YG9Ogugcu7vec6776m9I75VZndEfy615oulm4dTfWN3tappi+6Nzafb1I6+NMHF+a9P5bRmnXasTfHPPj+2ZMN2tFAv33/FtGjzdmk6L243SxXSb4HK3ebDr5tv/Tw/YXrXTc1gH4o+zpHA/pk1RlwIs95kTYKro9f+nw74d3e3G/Zq75s3qxmqI6ebq8txUc9uz7YPX/799LmOZDvhegrn8mxvFE3xzdv3zMf8x2/rxwYV0e9D2zpvqB+d1QtOBXOFDJNPGZcMqFy7n+2a5mO+2itvVA7bxcLtndOqvTQ/ilXAbcrpRnH0zweXJvGwNGT5xNqfJdjE+vFA226bG3Ldsrtb5/tO+zY9v0yM3u0qnyTQgL/bV//LCXz3k4VlSuD3ty/m/Pt03iYNTf/WQade8Hm3D9XvdMjT2dmu/Gmx+orgvqqt9wXMZCxPndnO6/cAJvjvk9V129eb+6cbSqmVfcF4ntKTI5llf7Dbd77vatl0eEAjzA7bn91S16NRfm8aYd81jXm8/Mvt93+uMnzjzMj5Z/WxyeKGsr7Bdn+bx1g/AmrS50ra75lsrq2ZPD1/9/zTy7cb9aa2XwuUR+1vZLIexvr42icNTf7Um3XbNRdje2kBjb7f2q8H02NuN0uoZPJexTAcyP/NpMTtYiAon+K7K67vs6s3923Jv2rHds4v4bObCTVZluW3Yn2Oba5HZPm9Yr/lM39scj576t8fMM8ydvI35yOz3fa8zfuLszpN7yQ8vlPWagssFXZ3+/75v/fPbo1mwavZ8ilzGXv6vcD6sdm538Y653J7dtZZTpS6lvh3dVPTVXa5WOx+97Lhw3W7tV4PpsesLb9vRzQ4+0ZFsVrPpBm7GJzgzYNo83Tq8kG43NhG2mS86r1Pij6/3Hbx9r/L6WKZNuzutzu6lD9NUv08cfn/edGO5c2H2BOf2OyQOz5P5JDi8UNZnySZDrtanxvSA8r23g+3Gma0vu/kkwaN3T+J2e/UUfpwlhdXTnnvyORfgdrJvrrOLVXXW94suu8rE2Vxs6/mj5zKW6YnDbd/u3NqUZ35k8dcW84MOL6Ttrf25vJv7drvY1CS2P77eTyrcLC7hu/NpU6ftSVlMnJ9P/Wm8rdsd49nvjyyNeqq3SBxcctvGHV8oB5vWpwb3bi6hzWly21P6GWK9jq1e5Nz/Z3ea363WhB9nSWH1tFcvctZHgB8O7lYPv5UEqXLd9Hn/AM5m3+3WfjWYL67p7utd14eGz2Uom9N/NpVnurW/9zp1r7cPL5SfLqRNvW//f+tGdF5ntfmKhIfPsYNN0yilvduEuN04PPVn03gb05Pi+OjSclQv/Y6bt0mc7fIx9eqnC+Vg0/pU4N5N4kx3vP54OO0oNXOdOKsXObf/3p7ctJHWa8JPs6SwfnpzQz43iVNcG3FVXB4/P3oZe58Pj64G66pND13fbWcZaBSFI8FP50cn+CYUlhc62wf9dCGtm1VIn5205+9kVZO5jNtbPM7DTav1gnu3iROe+otp19rcFY6P1Wpz+byyAW+TOOuaTgX96UI52PRw4hT6f7/jyiZx5if58XDiFHauR0/l9vS2F9H344mz37lcGoUflx9NnOnm5Q6by3w/3c0y0Ch2R7L6OXbasrp3ca3bbKtMnPnm6oeizXZ65YL3mKUo04bbjeNz7GDTw4mz62C5SLzT6oUpx2cvNpHzwi8QfKPEWZ0nt5s/XijlTY8nzu7H7mIfN4lzf46PJ85js6Swftr35z19E8gDibOLleUK556LRxNn1cXNKRE/l5FsjgRfDbw/qO1at33wtHH7oB8vpFXBb/83NWO6GxUX01zuF92mIME5Vt70cOLsTvDVVCvbu2y+i5vj71erzRSru53rrRJnWc6vfrxQypvWrePebQ95lpSjYJs49xc564fcR9iYTrrHZknh9gRxEU3/TkOYOLdjYrYuV13xYQ8nzvREPtHP4qCp63tkOpLiKjUd1WoLy7P5Vu7NCbl9wPGFNDeOY0+bofg0s7n/vHS7uXvmLGJ50zRIae82cY5P/Y1pb+kU5fj7Li3fQ3A8wfO9V+IsZ/7FjxdKedO6ddy7SRycJUevVKfx5pvbACld4FsPzpLC7SnOJ/32mW8SZ31dLJCtqzvdN12PfpPWD6wG99vbq5x3G1db4iyb7mNsH/TzhXS/vf2RjHcbyfJjysXtRnCOlTetCsC923Px+NTfmHaX1gCOXyx/gu/JMnF2d1o/jA/YXFDXG9/TP8Zy/AkQJM52Hb7Nu71Otx6cJYXbYdyf4+Yyul2t2+ts67Zv/mej1m8ZTI+aL/jaxLnfY3tGRM9lLA8kzsEJfnc/La+31v9fesB2/+oet//OTyQ6r7P7deKsu7Dawgdszr7jU3/r9phiWsSzL+aL8lWn/Z9PnP2d1pcJH7Ded5vs58YhcebbN7d590/i7tFZUrgdBlf6m+nE39zYuhWXWy9Qn+rEmdt2+899it0DR1VYbe7259ZBDkybr3e8/e/jiTMvn6j8/oHjqE+c/Z3WqcIHbBLn+NTfuj2mXNDbroPZV/Dj29neK3G2V97+fL9tKCXOqi3rMfiA9cV6eyT7ucfEuf80ebFJnNJY4SzXn4kO9r0CD2P9ImeTOMWL63gPSlidOPMGbL/dLM44lu15v8WDLtTrZl3VbWUeuJCmDWjUfu5xTEc0HfTtRnSOlaqyLhwfsMkDPvDINEOQOAezr92uytux3P4B7N1dnmjwxPnYtnz7c8k+43dNWdb/e9E3Y/AB+8TZN5RwFd43rB69fW22Ec3Ck/jlds9nOq6L6Wrdtmhjc78NlHD903jpZ/Z9XW4bJuVWj2w64FLpfjjBV9Zn2vSYac8DF9L6nF6eR3Be5/O9WXjx1B84x+53Kh8+H1BInGL/NqYBi6tBOPva+n5H93mewRPn0sal/POP1NPN/cvHUn2nbfO9tn3iA9Yn3ua1yvf39+fB26+7xFk/cHrIPMrqTtO3JUez4Hhf7/Z0Vlfh6kXOdGzz0rSq1ee0b3Xny5F+f94H2l6t8/2QOMuIvLi3Qy/lCp7LWKLE4bm1PcFXy+z63N7c55ELaXOaLoWfNhTO63w2z3M+nvlQHjjH9ufTJtv5gE3iHJ/6W9NdihUMZ1/9aL6emId5gjdIHP5LXct5M92+7rz2YdqwGeJ+rVwGuX+WY2oBH7C+Kueda6VTYZc46x8Ipwfcn8Tted6+zuX2HJb73uGcSpw4q2c/d+Xepdspf3vr/7pnVZbZ/KDp5uUhy9o2l2G13t7+zSNe3NuhV5uPn8tYwsT58QS/nnPzjtsY053mIeYBggtp2oLNwXmdzvV53n5rv3xevOIcW59Pl0rfj30zQnHhj079jWlfaZn5efbrWX7fcR3DxKlV6NSqVeut15pO/78eAT//TrDS8b63G5uf6yaFc2GfOKsnxvBYu50GwSzzzWXgF7s9nfXpuzSIP2Nv3HYVijA9qrBntxrcrDasn8fqHqsWBc9lKGHiFIuHE3xxq850Yx5hfYeDC2nVhPXTKM194vJWg0/z4n6uPHKOHZxP0xh8wCZxSnUqdXPaVVhlHpt9cRt93nxiSwZPnFKRl3as9x5cKBf7bt+bPd3mXadbuzYWT4ZC4iwPvN99/yTm0+B4lvkx93Ff7fZ0Nqfv/Snfa1rqGe+8uD0Mj7kdeLF2l9u8uLd3WW3luLv9g4gTp3Bu8QTnjunWfK8HLqTVXTb938995vJWo/BMVwV94Bwrn0/4ueggcXaNKLdz2rNfZK5+np075kec2JLBE2d/mmzatNp7cKHwblfLGHzAJnEKDS4MXkqcZcbCprvb9mCWHxaa892ez+b0vT/9Zev+iI5/0Jv3bXZN7wzcr7v1gJfbvLg3V9z24jp8LkP56URgYXcnOHdMN0sDHF1Iyz3WW/dzc38a+1NhvbA/cI7xbld8lXSQOPsqFQb/KXF+nn23g/d7vtETB98WxL+QXHZed1w7Mv9b7iubTq3H4ANud9z83D3duD+PXfNuY+CJ3c6A4qdjJtMDwlmuo+wP52Wuzw4foJie8ub4t9fXXIVp6/TT13yNTIe3VOdy9+tdl3lWpVtG2n7m83safXcVl5/LWG41Dp778Qm+PvxlB8/7By6k+y+C+CzK53VG22WZ5/Gy53r7qOSb82k9Bh9wu+Ptdnjqr9zO4qCEh7Nvjm3Zceva/iieZ/jEuSzD05/qclW/7rwtyqVdG9MY0d/70vQA3G7p3v1JrJ5F/1lS+JwS4Pv2qY+L6ZJeLobb7fuh3x5y0J8f/1o7UHgu7+fwBJ8+L/F1+Pmom0cvpJLSeZ3Tx3QuFJ/oo+fYfD7FBV376dSvcTj7/K9LHX2m9iRvkDgvMp0Vuw1sdJtzZklhuh64IeubMFIvf+nUN3F+a3qZutvQ9weIc2ZJ4XZgq8vutuFXP+hJA/lLp76J81tc+uf3ebf3anXOLCncDmz3/uEbvpqTNv7SqW/i/Nb8q7jbu6LBb/uanDNLCvOhXa8zfkZCel9/6dQ3cX4LH8GZdT5Lzpklhfk623rHbJU2/tKpb+L82vazlJPuUXDOLCnwKC/e86qTNnjaX7zpqW/i/F7hJ5MnRME5s2RQeD33pledtPGHTn0TpwHPk+f8pu+cWVJAuhb+vk56S3/m1DdxmnzMf1Z1/AXjHZwzSwqfy59jvvYP1aRz/ZFT38SRJJ3DxJEkncPEkSSdw8SRJJ3DxJEkncPEkSSdw8SRJJ3DxJEkncPEkSSdw8SRJJ3DxJEkncPEkSSdw8SRJJ3DxJEkncPEkSSdw8SRJJ3DxJEkncPEkSSdw8SRJJ3DxJEkncPEkSSdw8SRJJ3DxJEkncPEkSSdw8SRJJ3DxJEkncPEkSSdw8SRJJ3DxJEkncPEkSSdw8SRJJ3DxJEkncPEkSSdw8SRJJ1jShxJkp7PxJEkneM/Ro4k6Qz/+c//J0nSGUwcSdI5TBxJ0jlMHEnSOUwcSdI5TBxJ0jlMHEnSOUwcSdI5TBxJ0jlMHEnSOUwcSdI5TBxJ0jlMHEnSOUwcSdI5TBxJ0jlMHEnSOUwcSdI5TBxJ0jlMHEnSOUwcSdI5TBxJ0jlMHEnSOUwcSdI5TBxJ0jlMHEnSOUwcSdI5TBxJ0jlMHEnSOUwcSdI5TBxJ0jlMHEnSOUwcSdI5TBxJ0jlMHEnSOUwcSdI5TBxJ0jlMHEnSOUwcSdI5TBxJ0jlMHEnSOUwcSdI5TBxJ0jlMHEnSOUwcSdI5TBxJ0jlMHEnSOUwcSdI5TBxJ0jlMHEnSOUwcSdI5TBxJ0jlMHEnSOUwcSdI5TBxJ0jlMHEnSOUwcSdI5TBxJ0jlMHEnSOUwcSdI5TBxJ0jlMHEnSOUwcSdI5TBxJ0jlMHEnSOUwcSdI5TBxJ0jlMHEnSOUwcSdI5/vOf/0qS9HwGjiTpJCaOJOkcl8T5R5Kk5zJxJEnnMHEkSecwcSRJ5zBxJEnnMHEkSecwcSRJ5zBxJEnnMHEkSecwcSRJ5zBxJEnnMHEkSecwcSRJ5zBxJEnnMHEkSecwcSRJ5zBxJEnnMHEkSecwcSRJ5zBxJEnnMHEkSecwcSRJ5zBxJEnnMHEkSecwcSRJ5zBxJEnnMHEkSecwcSRJ5zBxJEnnMHEkSecwcSRJ5zBxJEnnMHEkSecwcSRJ5zBxJEnnMHEkSecwcSRJ5zBxJEnnMHEkSecwcSRJ5zBxJEnnMHEkSecwcSRJ5zBxJEnnMHEkSecwcSRJ5zBxJEnnMHEkSecwcSRJ5zBxJEnnMHEkSecwcSRJ5zBxJEnnMHEkSecwcSRJ5zBx1OTj+/vr4vuTe/IY4TlKf4KJoya3tfziY9n4ed1ascBXP6BK8Tme5bmHdqKPz+uBfL+ghnofJo6a3Bfzr2VNva/w35u7Hqt+QJ37U1w9x7M8+dDO83EvopGj3zNx1OS+Di2r+fVnYWwLVT+g0i+H//yc3o27vET5/PjVQvvsQzvPciBf3CU9zMT5O5Y3l2bf379cSBfLYPcVdTXPYz/YVz+g0jL846v+7c2wrc/6Wj370E6zvMTxRY4amDh/xmrJ2PrFQrpYDTNvql5lqx9QaRn+wcT5KMTNVfUvMZ59aKcxcdSFifNXrN7f2aleSBfLIO+TOEd5c1FZqmcf2mlMHHVh4vwVUeI8uhQXFIY4WmWnZ7D/2NbRA3pZht9NXRAXqnK9ffahbRwW+HHzq7vd614TR12YOH/FDwvpb9fDZYSfEmd5AlwRDx7QzTI8Zy6IXuDcPDDI3bMPbe24wI9bni52mDjqwsT5K35InN8uiMsA92Xu4PNZy+LLBfHgAd3UDP9z4Dwyyt2zD23tuMAPW+UKdy17drukh5k4f8VPifPLyFkevyxz5SGDBbH8gG7uw+9npkcCp+qH/PtjnnNoa0GBHxUkznL+VBy9BCbOX/Fj4vxuJVkevlrmin9nHy2IxQd0U3yORY8FTlWpnntoa1GBHxQkzvxdQbvf8EgVTJy/YpU405rxcfvekgUf8ojl0T8tcx0WxF96+Dmuf1lxvfvt/rtCnfCC5Rc6FDhKHKkDE+ev2CfO7g9PfvPT6/Lon5a5DgviLz38HLcvcTZ3Rhj9plTP1qHAJo6ezMT5K4qJs11kf7NQPf7oDgviLz36HDevZHYvY7ZxxL0JdCiwiaMnM3H+ioPEWX8G6TerzPLgn5a5DgviLz36HJf7FQIHkZPwRU6HAps4ejIT5684SpzwDy0+PufvF/v+nn6pAcuDi7tXfr0gfnxMT+LgKayfZPE39PeJ45nXL3EKgfPg68Hr73zKz6PgfmgPPmL6ctHv0u/vfy7w8t2kl2/U4962xFmN/Vkce2c69gePXO/BxPkrjhJn/ZM9Fgr+vrz0iatl57Jv/hfQ7gvP5tXByrx/94AV/AIFz2D3O/3Sk1z27XatrZ8l911tnsqy+fYUvm8hdX8+01ThoeHJ779BZ/o927xjU8ej90bXVvcpfDXp5jnxUxOze/beY3/1oNn+i+gKx7up03a+YsDrHZk4f8UjibNZTPZreWlRXHYtD1623W4fLWb3hWbZch9jUnjo6kkW9l7hSS47Sqvl3WqAg/utS3Kf4/4kLg9aVt7p2O6394e2W6X35b3f5XKDDVmW6aM6LHcpzHWxWukP7nE/0GX2XXFKR7K/26ZOu4fwvNKbMnH+isPEWV37Dyzm/HF02XF/8Oqht5m4VC4OHnDHdenqp2V09ySX7VwF19bPkvsm66Lch1q/qlk9o9tTOD60gwIf/DRQPNrl5Qf33N32H8x1cZ+PO+6mA91l6d3+iU22x7KuU+EJGTl/g4nzV9QlTmFJmP24mu9W2YoF8fCprU0zHQ+LJ7lsjhKnWAdYP6F522olXe/+IXEODg13u28tP2A+yuNKYJiCeT5uv/spcUpPbLI5llWdimeXkfMnmDh/RVXiFJeE2U+r+W6V/WlB3D1gcrSWTU/gaPfVeqBl62GUbJdc7rorvQ5aVtLNccaJc1yS8jM/ONjpvsejXXc/1E1uv/shccpPbLI+lqVO5efDl056SybOX/FI4sw7ykvC3XptWLZ2T5zDhz2SOD88x731MXPf3fpO81O9P83t8wkTJyzw6n73bUfHervbYaUeSJz5eXHzXZw4R09ssjrogzotgubobZg4f8Vh4qyu+cKmotUAy8beiXO8Tj6SOMV1O1rUVk8y+Gl7udM+cbaixFkf2u1DXetPkq2mX92v7KECH1fyYqoJN9+FiXM8883qvj/dNSq73oaJ81ccJc56IShsKqyIB2viceIcZsO0e/8APuj747Jj/oATE+fzuhdPchUuxY20emxwr+VO93sdrKRR4pR6Udp2HAMzlgJuI92fxPxHONuPZd+GOIqludflxNnc81oRfOR7OZaDOq1szku9JxPnryiuaNvFalpK1mvP8nHdzedZlzW5sK28yq4m4opefMD6WSxbr4NMz/N6RNvPE5dfqCwbOfPKY4lTuNfBSnrb/dOhFWNoeerLHW87LoNuP1i8PD4o8H7jepDVc1g9s/W9L4qJUz4nCnnGrdefE7iRT1tvyMT5Kw4SZ/MGz+6emzc69tlUXs3LC2qwIBYfUF4Sr/edH/+9/zvD1aOWjcs2zrxyMB88kDjXhfSbLy/KP+1vZlrGvm+6b7lajnuxGiEq8O7vNldPbLWrNnGWu++atNu+rdP8k8Lmx5vVEHpTJs5fUU6c9QU/LzL7Lfv73jcum/omzmobFqJ5MS9aHeWycdnGmVeWOz04fjlx8GRLh7aaanPfQhAt9zxK49URHRe4pDhEZeIUqsE7Lzs2dVrGKJ5Velsmzl9RTJxN4OzfVMPKVVpHCpuKq2y0IJYeUHy6D1geVtrGmVeWO0UTFtbYg5X0pnRoyzY8nf32+5bDnxN+nTjL0/594hRfUV6UYmRdp3WZDgfROzJx/or9Ej5/i+Rsf8f148vLbWk1L62y4YJYesDxs4gts5ReU3DmleVODYnDwPnh0DDRfft9mPsW3HfZ/OvEWZ7Z6klXJs5yb8647CklzqZMv+20hmTi/BWbH8VL5kVjv+Vu2VVYE/smzrKJ9469NnFw758ObXvfMHG2z7y0/AcFLumQOEFW7H++Obx3qUR6WybOX/FT4szrSPkdm5vCGyCFex8sIccLYuEBhU2PeWni7B9YOo5l0/a+q+c+b1nuun3my5yvTJzC6TArnEVHibM6yH399G5MnL/ih8S5LyOlNXJWWDSWLc9KHNz5B09OnNUi++NKehEf2qH54cuW3ImzeZvs6r7r5zot24PC602YOH9FnDjLknG4MJT3LVu6Jk5hpkMfyz/Jtmbi7FwKta/UrxNnufN+wv2+wzot24PC602YOH9FmDirFeNwYdjumxeHZctrEof/qtni94kT3KtD4hw+4ZX54cuW9sQppfLVkxNnvvthnZbtJs77M3H+imCh27wncrgwlNfPZcsrEmf3D3utVCZOIUsKljs99lTjQzs0P3zZ0po4waxPSZz93Q/rtGw3cd6fifNXHC05/Gv0w4WhvH4uW16QOEHeVCfOasbgXsud7s8rfKrxoR2aH75saUuc8J08E0fnMXH+isJC9/39uV8qDheG8vq5bDk/ccLAaUic4ylXd7qvu+FTjQ/tyP1pFjZhjIcSJwwcE0cnMnH+itUFH17YhwtDeUFatpyeOHHg1CbOelXmvrvVlE9MnOVZlrZtx3gkceLAeXbizPsO67RsD09MvQUT56/okTiFfcuWsxNns3LP/2DBapaGxDks0Oo+96HCp/q7Q7tb7tqSOPft1zdRp+exPLOnJM5+3+FxL9sP6663YeL8Fb9InN39CovGsuVZibN7FpPlHuu7/DpximkC65Arbdzc+apwaMGqvrPctSFxVk+wGC7FjbvnFibOaojdPhNHKybOX/HAGn61WnR2C2+46nRNnOhZ3BQedPH7xFnHyUGFSm+qHa+kF4VnGazqO8tdj0LkgcQpdK1P4qzKsb1v8bgP67S/q96XifNXPJo40U+uy677mlbYVFhtLo4WxPIDlk27Z3GzHM9muN8nzupZHNxvnUnLPQ5X0ov40OJGBM+8KnHumzfPr0PiBKdUoSiFTTfLdo6i92Pi/BXB8rC13I+rTrx8Pp44zJDSA5ZNfBaTUrQcbL5vOkiSyXK3conWkbR6Uocr6UXp0I6SoWB5dFXibApcjJaDzaWnOymMvjpyHkl87+19l+2cU+/HxPkrHk6c1XslWEdK76IU7nywbBVXyavSA1Zz4e4ft5lK0XKw+b6JB7S1fglTqtHqKa2f0+FKehEfGguxszz6gcQpbjyIlqPN9427AhSe9TqCt3de7bk/8cM6Lds5p96PifNXPJw4qztuV8TSMlJaE0urbLTiFB+wXv4ZKdenVYqWg+Vr2RYmzuY1zK5I272rHcfH9fOhhc8neObFcDl4IuVoKQ9xOGExcdavCrflKv1scvD0yi3TuzJx/oqHE2e9jqwXo/WSG67mpVU2XGiLD1i2re9/u+vl/8rvTa2WutJQXEa31i9iLh+4Pt63rsvhSnrx06E93Iq6xFnfe/UUylvLicODKSXO0Y8FxReoh3Vatv9QDb0BE+eveDxxyu8erQNntUYtGysS53rfj895nOIDNkv87at47t/aud2/ejbrB5VW+Dhxti9jvr4+p9DhP5Z69GKBi/Qjh8bwXapycXS/nxJnXeDiUzjo5uanjcu9P7/nB5XqvSlY+fiWrYd1Kt1Z78rE+SseT5zNOnL7i8GP7VdmrgZYNv6UOFzPl7Wr+ID1+knYPz/o6Eku2+LECedc2xTwcCW9KB7athLzF9td/tEF3nO51wOJc1Rg3Nw+HomDaL0IEmd799tf4W6/zLsciMvGi2X7Dyem3oCJ81cUVugjhWVnY736FbYWV9ntz8+z6AHBs+Bw10Wb/27Bz+v2XjDnyrZ+hyvpRfWhXfz8zIuJc1TgzWufy9h4ybYeopC508zFxCmE3NZy1+M6Ldt/OjE1PhPnr6hInB9WxM17SsvmHxOnMGr0gGA1Oxpu4+d1u+CnQS9QvsOV9KJ8aKVsWPn5mZcTp/DkL5uDQl6thyjcN0qc0v3X1sd8WKfy3fWeTJy/oiZx4nVk8/Bl84+JUxh1t2P9gML9Jz/svvl53S4prNrA6h2upBfVh3bx8zMvJ05h1Ov2H45p8xPE/r5h4hTuv7K552Gdlu0srd6PifNX1CROae2aXX+hvFh2/Jg4hdUpfsD+/je7NXDl+z7Yz+t2UXHUBQ4/Wkkvjg4tKPAjz7ycOIXnft1cnuz+W6/NEPv77qq9uX9hzruj52zi/GEmzl9RlTjH/7jmdrkprolHq2zhzaQfHlD4rcL6KRSe4/cy2M/rdtl+zV0pDHC4kl4cHtphgR965geJ80CB7z7u5dsOsav5D4mzf8AMzT+s0+Ej9IZMnL/i8II/UF5IdmvCsquUONv77la+6SHBAwrr8mrt3T3Hj9VgP6/bR3bDzhi3V2Fhjw/toVmWjY8lzkGB93W8PKycOLsc321mEXeDX+1qdVinZfvu7NLbMXH+jOkTSt/794UO8K9Q8DeRN/MnxNb/ePW8BBVm2gx5X5SCB/BJYLnb7L3t+75tWz+fwnOM8XNv4aPnp1gqT3Rou2O72oxy+MzvzcT2gwIji25PZnpqu2e2ja373qmu7MDFrly753txVKePaeTdE9EbMnEU+Pye15n7v+TV6nNeXx4ecHlE6SHz3tK+Fh+f88hf39+PP9lKyyTXw+sxy1GB579jLabB1v2uD9x38rGq1sMP0t9j4kiSzmHiSJLOYeJIks5h4kiSzmHiSJLOYeJIks5h4kiSzmHiSJLOYeJIks5h4kiSzmHiSJLOYeJIks5h4kiSzmHiSJLOYeJIks5h4kiSzmHiSJLOYeJIks5h4kiSzmHiSJLOYeJIks5h4kiSzmHiSJLOYeJIks5h4kiSzmHiSJLOYeJIks5h4kiSzmHiSJLOYeJIks5h4kiSzmHiSJLOYeJIks5h4kiSzmHiSJLOYeJIks5h4kiSzmHiSJLOYeJIks5h4kiSzmHiSJLOYeJIks5h4kiSzmHiSJLOYeJIks5h4kiSzmHiSJLOYeJIks5h4kiSzmHiSJLOYeJIks5h4kiSzmHiSJLOYeJIks5h4kiSzmHiSJLOYeJIks5h4kiSzmHiSJLOYeJIks5h4kiSzmHiSJLOYeJIks7RK3E+Pr8uvr8/uUeSpIvKxPn4vgbLF4LlFjfTro/NLkmSruoS52MJlnWuTDE0+17tkiTppi5xVq9lVomDwDFyJEkFVYmzeomzSpxd4GxfAEmSdFGVOOtsuYfKHEOfH8trIF/kSJKoJnFu2TLFzj1xppC53b7Hz/pxkiTVJc41az6ROFPGzBEzf5Zt9TBJkuoS55Ytc6bMiTO9kcaXPMvDJEm6qEica5J8MnGYMLwtSdLV44kzvcRB4kxvqi3vok27/UWOJGnr8cSZg6SYOEvATO+ymTiSpK2HE+eWJMuLmClxdgEzbfCjA5KkrYcT5x4sxcRZ/uTTxJEkFT2aOPeXOEgc/nXO/hc7kiRdPJg4txy5vndm4kiSfuPBxLkFy+p/54y53dgnjh+PliRtPZY4q5c4Jo4k6VceS5zVSxwTR5L0Kw8lzi1Fir+56Zo4//5XkjSIf7mG/+ihxNlkiIkjSXpW4mxe4jzzs2omjlb+h/Jhk/SnPSdxti9anpg40goXOyXAJklVHkic7UuccuIs33Kz+6I16Xe42CkBNkmq8kDizP+U9F4pcXZftCb9Dhc7JcAmSVWaEuejEDC7L1qTfoeLnRJgk6QqnRJn9+/jmDhqxcVOCbBJUpXWxJk+VrAkzrRrM4L0C1zslACbJFV5IHHmENlb7Zzv6wcH1AsXOyXAJklVHkmcLbxtho8O+Gsc9cLFTgmwSVKV5sSZv2PgdrvlGwekDS52SoBNkqo0J858+/Iq52P+lY8vcdSOi50SYJOkKu2JM7+sWfELB9QBFzslwCZJVdoTZ/9ZNgNHPXCxUwJsklSlQ+Lc31czcNQTFzslwCZJVeoT5+MaMJuPP982TfxgtPrgYqcE2CSpSn3iFH1+3kLn088MqBcudkqATZKqdEocqTsudkqATZKqmDjKioudEmCTpComjrLiYqcE2CSpiomjrLjYKQE2Sapi4igrLnZKgE2Sqpg4yoqLnRJgk6QqJo6y4mKnBNgkqYqJo6y42CkBNkmqYuIoKy52SoBNkqqYOMqKi50SYJOkKiaOsuJipwTYJKmKiaOsuNgpATZJqmLiKCsudkqATZKqmDjKioudEmCTpComjrLiYqcE2CSpiomjrLjYKQE2Sapi4igrLnZKgE2Sqpg4yoqLnRJgk6QqJo6y4mKnBNgkqYqJo6y42CkBNkmqYuIoKy52SoBNkqqYOMqKi50SYJOkKiaOsuJipwTYJKmKiaOsuNgpATZJqmLiKCsudkqATZKqmDjKioudEmCTpComjrLiYqcE2CSpiomjrLjYKQE2Sapi4igrLnZKgE2Sqpg4yoqLnRJgk6QqJo6y4mKnBNgkqYqJo6y42CkBNkmqYuIoKy52SoBNkqqYOMqKi50SYJOkKiaOsuJipwTYJKmKiaOsuNgpATZJqmLiKCsudkqATZKqmDjKioudEmCTpComjrLiYqcE2CSpiomjrLjYKQE2Sapi4igrLnZKgE2Sqpg4yoqLnRJgk6QqJo6y4mKnBNgkqYqJo6y42CkBNkmqYuIoKy52SoBNkqqYOMqKi50SYJOkKiaOsuJipwTYJKmKiaOsuNgpATZJqmLiKCsudkqATZKqmDjKioudEmCTpComjrLiYqcE2CSpiomjrLjYKQE2Sapi4igrLnZKgE2Sqpg4yoqLnRJgk6QqJo6y4mKnBNgkqYqJo6y42CkBNkmqYuIoKy52SoBNkqqYOMqKi50SYJOkKiaOsuJipwTYJKmKiaOsuNgpATZJqmLiKCsudkqATZKqmDjKioudEmCTpComjrLiYqcE2CSpiomjrLjYKQE2Sapi4igrLnZKgE2Sqpg4yoqLnRJgk6QqJo6y4mKnBNgkqYqJo6y42CkBNkmqYuIoKy52SoBNkqqYOMqKi50SYJOkKiaOsuJipwTYJKmKiaOsuNgpATZJqmLiKCsudkqATZKqmDjKioudEmCTpComjrLiYqcE2CSpiomjrLjYKQE2Sapi4igrLnZKgE2Sqpg4yoqLnRJgk6QqJo6y4mKnBNgkqYqJo6y42CkBNkmqYuIoKy52SoBNkqqYOMqKi50SYJOkKiaOsuJipwTYJKmKiaOsuNgpATZJqmLiKCsudkqATZKqmDjKioudEmCTpComjrLiYqcE2CSpiomjrLjYKQE2Sapi4igrLnZKgE2Sqpg4yoqLnRJgk6QqJo6y4mKnBNgkqYqJo6y42CkBNkmqYuIoKy52SoBNkqqYOMqKi50SYJOkKiaOsuJipwTYJKmKiaOsuNgpATZJqmLiKCsudkqATZKqmDjKioudEmCTpComjrLiYqcE2CSpiomjrLjYKQE2Sapi4igrLnZKgE2Sqpg4yoqLnRJgk6QqJo6y4mKnBNgkqYqJo6y42CkBNkmqYuIoKy52SoBNkqqYOMqKi50SYJOkKiaOsuJipwTYJKmKiaOsuNgpATZJqmLiKCsudkqATZKqmDjKioudEmCTpCqPJ87H5+fXxffnJ3dd9952fpd2Sr/AxU4JsElSlUcT5+MaKJPvD+y9xc3BTulXuNgpATZJqvJY4nx8ryLlGiub3di73Sn9Dhc7JcAmSVUeSpzNC5x9qjCOjBz1wMVOCbBJUpWHEmf9ptlsee9sFzjrndJvcbFTAmySVOXxxLn+fubzHi/31zHzC6DPjyWafJGjdlzslACbJFV5NHHunwe4R868c7p523+Pn3mv9Ftc7JQAmyRVeTBxVm+TIXGmjJkjZgokX+SoGRc7JcAmSVUeSpyN+UXOFELTG2n3SJr2rh4g/QoXOyXAJklV6hNn/l3NlDFMGN6WfomLnRJgk6QqrYkzvam2vIs2vQTyFzlqxcVOCbBJUpXfJ87tFn6Nc99t4qgVFzslwCZJVeoTZwqcKXF2ATNt8KMDasXFTgmwSVKV6sSZP/988MEBE0e9cLFTAmySVKU2cebAmRNl+rXNkji7X+xIv8PFTgmwSVKVusRZvtETfxBq4qg7LnZKgE2SqjyaOPjyNP75zS5x/Hi0WnGxUwJsklTlwcTZfnv0/hsITBx1x8VOCbBJUpVfJc7qH/qctpg46o6LnRJgk6QqDybO/TPRk/sXe063+yTO//m/0h0XOyXAJulP+z9cw3/0aOLs/hGc7Zfc9Emcf//7IF4GSoBNasYJlACb1I4zKAE26ci/XMN/9Gji3Hws/z7OFDJdP6tm4oyMTWrGCZQAm9SOMygBNunIsxNn8xud682uifPP/3sQ66ME2KRmnEAJsEntOIMSYJOOcAX/WXXiLJFz/fjA7os7d1+09gysjxJgk5pxAiXAJrXjDEqATeqnPnHuv9K5vozZJc7ui9aegfVRAmxSM06gBNikdpxBCbBJ/fwiceYvj74mzi5gdl+09gysjxJgk5pxAiXAJrXjDEqATeqnU+Ls/n0cE+fPYZOacQIlwCa14wxKgE3qpzVxpo9HL4kz7Vzd/wlYHyXAJjXjBEqATWrHGZQAm9RPQ+Lc3klDwpzywQFP0ozYpGacQAmwSe04gxJgk/qpT5z7Z9U2f5AzR8wpv8bxJM2ITWrGCZQAm9SOMygBNqmfRxLnY/PXNfe/AZ13rjOm5RsHKrA+SoBNasYJlACb1I4zKAE2qZ9HEufyuuX78/oq5mN+S215GTMn0Odq75Nf4niSZsQmNeMESoBNascZlACb1M+jibNzf9mz/Vrp7b5nYX2UAJvUjBMoATapHWdQAmxSP79NnFWo7HY/PXA8STNik5pxAiXAJrXjDEqATernkcTZf3H09rNo2P38wPEkzYhNasYJlACb1I4zKAE2qZ+HEuef1VdGX3zi9zQf691P/mD0FeujBNikZpxACbBJ7TiDEmCT+nksca6hc4uVb8bNbe+UScWd/bE+SoBNasYJlACb1I4zKAE2qZ+HEycV1kcJsEnNOIESYJPacQYlwCb1Y+KoEzapGSdQAmxSO86gBNikfkwcdcImNeMESoBNascZlACb1I+Jo07YpGacQAmwSe04gxJgk/oxcdQJm9SMEygBNqkdZ1ACbFI/Jo46YZOacQIlwCa14wxKgE3qx8RRJ2xSM06gBNikdpxBCbBJ/Zg46oRNasYJlACb1I4zKAE2qR8TR52wSc04gRJgk9pxBiXAJvVj4qgTNqkZJ1ACbFI7zqAE2KR+TBx1wiY14wRKgE1qxxmUAJvUj4mjTtikZpxACbBJ7TiDEmCT+jFx1Amb1IwTKAE2qR1nUAJsUj8mjjphk5pxAiXAJrXjDEqATerHxFEnbFIzTqAE2KR2nEEJsEn9mDjqhE1qxgmUAJvUjjMoATapHxNHnbBJzTiBEmCT2nEGJcAm9WPiqBM2qRknUAJsUjvOoATYpH5MHHXCJjXjBEqATWrHGZQAm9SPiaNO2KRmnEAJsEntOIMSYJP6MXHUCZvUjBMoATapHWdQAmxSPyaOOmGTmnECJcAmteMMSoBN6sfEUSdsUjNOoATYpHacQQmwSf2YOOqETWrGCZQAm9SOMygBNqkfE0edsEnNOIESYJPacQYlwCb1Y+KoEzapGSdQAmxSO86gBNikfkwcdcImNeMESoBNascZlACb1I+Jo07YpGacQAmwSe04gxJgk/oxcdQJm9SMEygBNqkdZ1ACbFI/Jo46YZOacQIlwCa14wxKgE3qx8RRJ2xSM06gBNikdpxBCbBJ/Zg46oRNasYJlACb1I4zKAE2qR8TR52wSc04gRJgk9pxBiXAJvVj4qgTNqkZJ1ACbFI7zqAE2KR+TBx1wiY14wRKgE1qxxmUAJvUj4mjTtikZpxACbBJ7TiDEmCT+jFx1Amb1IwTKAE2qR1nUAJsUj8mjjphk5pxAiXAJrXjDEqATerHxFEnbFIzTqAE2KR2nEEJsEn9mDjqhE1qxgmUAJvUjjMoATapHxNHnbBJzTiBEmCT2nEGJcAm9WPiqBM2qRknUAJsUjvOoATYpH5MHHXCJjXjBEqATWrHGZQAm9SPiaNO2KRmnEAJsEntOIMSYJP6MXHUCZvUjBMoATapHWdQAmxSPyaOOmGTmnECJcAmteMMSoBN6sfEUSdsUjNOoATYpHacQQmwSf2YOOqETWrGCZQAm9SOMygBNqkfE0edsEnNOIESYJPacQYlwCb1Y+KoEzapGSdQAmxSO86gBNikfkwcdcImNeMESoBNascZlACb1I+Jo07YpGacQAmwSe04gxJgk/oxcdQJm9SMEygBNqkdZ1ACbFI/Jo46YZOacQIlwCa14wxKgE3qx8RRJ2xSM06gBNikdpxBCbBJ/Zg46oRNasYJlACb1I4zKAE2qR8TR52wSc04gRJgk9pxBiXAJvVj4qgTNqkZJ1ACbFI7zqAE2KR+TBx1wiY14wRKgE1qxxmUAJvUj4mjTtikZpxACbBJ7TiDEmCT+jFx1Amb1IwTKAE2qR1nUAJsUj8mjjphk5pxAiXAJrXjDEqATerHxFEnbFIzTqAE2KR2nEEJsEn9mDjqhE1qxgmUAJvUjjMoATapHxNHnbBJzTiBEmCT2nEGJcAm9WPiqBM2qRknUAJsUjvOoATYpH5MHHXCJjXjBEqATWrHGZQAm9SPiaNO2KRmnEAJsEntOIMSYJP6MXHUCZvUjBMoATapHWdQAmxSPyaOOmGTmnECJcAmteMMSoBN6sfEUSdsUjNOoATYpHacQQmwSf2YOOqETWrGCZQAm9SOMygBNqkfE0edsEnNOIESYJPacQYlwCb1Y+KoEzapGSdQAmxSO86gBNikfkwcdcImNeMESoBNascZlACb1I+Jo07YpGacQAmwSe04gxJgk/oxcdQJm9SMEygBNqkdZ1ACbFI/Jo46YZOacQIlwCa14wxKgE3qx8RRJ2xSM06gBNikdpxBCbBJ/Zg46oRNasYJlACb1I4zKAE2qR8TR52wSc04gRJgk9pxBiXAJvVj4qgTNqkZJ1ACbFI7zqAE2KR+TBx1wiY14wRKgE1qxxmUAJvUj4mjTtikZpxACbBJ7TiDEmCT+jFx1Amb1IwTKAE2qR1nUAJsUj8mjjphk5pxAiXAJrXjDEqATerHxFEnbFIzTqAE2KR2nEEJsEn9mDjqhE1qxgmUAJvUjjMoATapHxNHnbBJzTiBEmCT2nEGJcAm9WPiqBM2qRknUAJsUjvOoATYpH5MHHXCJjXjBEqATWrHGZQAm9SPiaNO2KRmnEAJsEntOIMSYJP6MXHUCZvUjBMoATapHWdQAmxSPyaOOmGTmnECJcAmteMMSoBN6sfEUSdsUjNOoATYpHacQQmwSf2YOOqETWrGCZQAm9SOMygBNqkfE0edsEnNOIESYJPacQYlwCb1Y+KoEzapGSdQAmxSO86gBNikfkwcdcImNeMESoBNascZlACb1I+Jo07YpGacQAmwSe04gxJgk/oxcdQJm9SMEygBNqkdZ1ACbFI/Jo46YZOacQIlwCa14wxKgE3qx8RRJ2xSM06gBNikdpxBCbBJ/Zg46oRNasYJlACb1I4zKAE2qR8TR52wSc04gRJgk9pxBiXAJvVj4qgTNqkZJ1ACbFI7zqAE2KR+TBx1wiY14wRKgE1qxxmUAJvUj4mjTtikZpxACbBJ7TiDEmCT+jFx1Amb1IwTKAE2qR1nUAJsUj8VifPx+XXx/f3JPT/t7I71UQJsUjNOoATYpHacQQmwSf08mjhTotzsYmWz8wM7n4D1UQJsUjNOoATYpHacQQmwSf08mDjfq0i5xkq0d7vzGVgfJcAmNeMESoBNascZlACb1M9DifOxTRSmCuPo+ZHD+igBNqkZJ1ACbFI7zqAE2KR+Hkqc9Ztms+WNtV3gfH09+4011kcJsEnNOIESYJPacQYlwCb181DiFDJleR0zvwD6/Fii6dkvclgfJcAmNeMESoBNascZlACb1M/jiXNJlH8+l/CZd043by9r7vGzfnh/rI8SYJOacQIlwCa14wxKgE3q59HEuUfIPXKmLVPGzPun3U9+kcP6KAE2qRknUAJsUjvOoATYpH4eSpzP1S9m7r/TmTJmun2/w7T3fv+nYH2UAJvUjBMoATapHWdQAmxSPw8lzgYShwnD20/B+igBNqkZJ1ACbFI7zqAE2KR+WhNnelNteRdtelvtub/IYX2UAJvUjBMoATapHWdQAmxSP50SZwmY6V02E+fPYZOacQIlwCa14wxKgE3q5/eJc/vNzS5gpg3P/egA66ME2KRmnEAJsEntOIMSYJP6qU6c+/cP3G7ygwMmzp/FJjXjBEqATWrHGZQAm9RPdeLcP6t2uzn92mZJnN0vdp6B9VECbFIzTqAE2KR2nEEJsEn9VCfOHDhTxpg4mrBJzTiBEmCT2nEGJcAm9VObOHhTbfuNA+s73Dc8A+ujBNikZpxACbBJ7TiDEmCT+qlNnDlw5ogxcTRhk5pxAiXAJrXjDEqATeqnMnHm77i5v2lm4mjCJjXjBEqATWrHGZQAm9RPXeLc31Pjl9r0SZz/838fxPooATapGSdQAmxSO86gBNikI/+Ha/iPqhJnHzh9E+ff/z6I9VECbFIzTqAE2KR2nEEJsElH/uUa/qOqxJkDZ/VBtK6fVTNxRsYmNeMESoBNascZlACbdOS5ibP7JU7vxPnn/z2I9VECbFIzTqAE2KR2nEEJsElHuIL/rCJxSoGz/+LO3RetPQProwTYpGacQAmwSe04gxJgk/p5PHHu/xTb8nqmlDi7L1p7BtZHCbBJzTiBEmCT2nEGJcAm9fNw4hQ+NXCxC5jdF609A+ujBNikZpxACbBJ7TiDEmCT+nk0cQ4CZ//Fnbtf7DwD66ME2KRmnEAJsEntOIMSYJP6eTBxjgJn/vzakjjT/Tb36Y71UQJsUjNOoATYpHacQQmwSf08ljjHgcOEOeWDA56kGbFJzTiBEmCT2nEGJcAm9fNY4syfGtgHDj86cMqvcTxJM2KTmnECJcAmteMMSoBN6uehxJkDp/TKZX75c8uYlm8cqMD6KAE2qRknUAJsUjvOoATYpH4eSZz7e2pb0+9uVnH0Mf9zbU9+ieNJmhGb1IwTKAE2qR1nUAJsUj/tiVPY+7svHKjA+igBNqkZJ1ACbFI7zqAE2KR+GhJnfuvs/u9Qz54eOJ6kGbFJzTiBEmCT2nEGJcAm9dMhcZZvI7h5fuB4kmbEJjXjBEqATWrHGZQAm9TPI4nDSJmsvkttfYfSxwt6Y32UAJvUjBMoATapHWdQAmxSPw8lzs8+P2+h8/nszwzcsD5KgE1qxgmUAJvUjjMoATapn06JczLWRwmwSc04gRJgk9pxBiXAJvVj4qgTNqkZJ1ACbFI7zqAE2KR+TBx1wiY14wRKgE1qxxmUAJvUj4mjTtikZpxACbBJ7TiDEmCT+jFx1Amb1IwTKAE2qR1nUAJsUj8mjjphk5pxAiXAJrXjDEqATerHxFEnbFIzTqAE2KR2nEEJsEn9mDjqhE1qxgmUAJvUjjMoATapHxNHnbBJzTiBEmCT2nEGJcAm9WPiqBM2qRknUAJsUjvOoATYpH5MHHXCJjXjBEqATWrHGZQAm9SPiaNO2KRmnEAJsEntOIMSYJP6MXHUCZvUjBMoATapHWdQAmxSPyaOOmGTmnECJcAmteMMSoBN6sfEUSdsUjNOoATYpHacQQmwSf2YOOqETWrGCZQAm9SOMygBNqkfE0edsEnNOIESYJPacQYlwCb1Y+KoEzapGSdQAmxSO86gBNikfkwcdcImNeMESoBNascZlACb1I+Jo07YpGacQAmwSe04gxJgk/oxcdQJm9SMEygBNqkdZ1ACbFI/Jo46YZOacQIlwCa14wxKgE3qx8RRJ2xSM06gBNikdpxBCbBJ/Zg46oRNasYJlACb1I4zKAE2qR8TR52wSc04gRJgk9pxBiXAJvVj4qgTNqkZJ1ACbFI7zqAE2KR+TBx1wiY14wRKgE1qxxmUAJvUj4mjTtikZpxACbBJ7TiDEmCT+jFx1Amb1IwTKAE2qR1nUAJsUj8mjjphk5pxAiXAJrXjDEqATerHxFEnbFIzTqAE2KR2nEEJsEn9mDjqhE1qxgmUAJvUjjMoATapHxNHnbBJzTiBEmCT2nEGJcAm9WPiqBM2qRknUAJsUjvOoATYpH5MHHXCJjXjBEqATWrHGZQAm9SPiaNO2KRmnEAJsEntOIMSYJP6MXHUCZvUjBMoATapHWdQAmxSPyaOOmGTmnECJcAmteMMSoBN6sfEUSdsUjNOoATYpHacQQmwSf2YOOqETWrGCZQAm9SOMygBNqkfE0edsEnNOIESYJPacQYlwCb1Y+KoEzapGSdQAmxSO86gBNikfkwcdcImNeMESoBNascZlACb1I+Jo07YpGacQAmwSe04gxJgk/oxcdQJm9SMEygBNqkdZ1ACbFI/Jo46YZOacQIlwCa14wxKgE3qx8RRJ2xSM06gBNikdpxBCbBJ/Zg46oRNasYJlACb1I4zKAE2qR8TR52wSc04gRJgk9pxBiXAJvVj4qgTNqkZJ1ACbFI7zqAE2KR+TBx1wiY14wRKgE1qxxmUAJvUj4mjTtikZpxACbBJ7TiDEmCT+jFx1Amb1IwTKAE2qR1nUAJsUj8mjjphk5pxAiXAJrXjDEqATerHxFEnbFIzTqAE2KR2nEEJsEn9mDjqhE1qxgmUAJvUjjMoATapHxNHnbBJzTiBEmCT2nEGJcAm9WPiqBM2qRknUAJsUjvOoATYpH5MHHXCJjXjBEqATWrHGZQAm9SPiaNO2KRmnEAJsEntOIMSYJP6MXHUCZvUjBMoATapHWdQAmxSPyaOOmGTmnECJcAmteMMSoBN6sfEUSdsUjNOoATYpHacQQmwSf2YOOqETWrGCZQAm9SOMygBNqkfE0edsEnNOIESYJPacQYlwCb1Y+KoEzapGSdQAmxSO86gBNikfkwcdcImNeMESoBNascZlACb1I+Jo07YpGacQAmwSe04gxJgk/oxcdQJm9SMEygBNqkdZ1ACbFI/Jo46YZOacQIlwCa14wxKgE3qx8RRJ2xSM06gBNikdpxBCbBJ/Zg46oRNasYJlACb1I4zKAE2qR8TR52wSc04gRJgk9pxBiXAJvVj4qgTNqkZJ1ACbFI7zqAE2KR+TBx1wiY14wRKgE1qxxmUAJvUj4mjTtikZpxACbBJ7TiDEmCT+jFx1Amb1IwTKAE2qR1nUAJsUj8mjjphk5pxAiXAJrXjDEqATerHxFEnbFIzTqAE2KR2nEEJsEn9mDjqhE1qxgmUAJvUjjMoATapHxNHnbBJzTiBEmCT2nEGJcAm9WPiqBM2qRknUAJsUjvOoATYpH5MHHXCJjXjBEqATWrHGZQAm9SPiaNO2KRmnEAJsEntOIMSYJP6MXHUCZvUjBMoATapHWdQAmxSPyaOOmGTmnECJcAmteMMSoBN6sfEUSdsUjNOoATYpHacQQmwSf2YOOqETWrGCZQAm9SOMygBNqkfE0edsEnNOIESYJPacQYlwCb1Y+KoEzapGSdQAmxSO86gBNikfkwcdcImNeMESoBNascZlACb1I+Jo07YpGacQAmwSe04gxJgk/oxcdQJm9SMEygBNqkdZ1ACbFI/Jo46YZOacQIlwCa14wxKgE3qx8RRJ2xSM06gBNikdpxBCbBJ/Zg46oRNasYJlACb1I4zKAE2qR8TR52wSc04gRJgk9pxBiXAJvVj4qgTNqkZJ1ACbFI7zqAE2KR+TBx1wiY14wRKgE1qxxmUAJvUj4mjTtikZpxACbBJ7TiDEmCT+jFx1Amb1IwTKAE2qR1nUAJsUj8mjjphk5pxAiXAJrXjDEqATerHxFEnbFIzTqAE2KR2nEEJsEn9mDjqhE1qxgmUAJvUjjMoATapHxNHnbBJzTiBEmCT2nEGJcAm9WPiqBM2qRknUAJsUjvOoATYpH5MHHXCJjXjBEqATWrHGZQAm9SPiaNO2KRmnEAJsEntOIMSYJP6MXHUCZvUjBMoATapHWdQAmxSP70S5+Pz6+L7+5N7noH1UQJsUjNOoATYpHacQQmwSf3UJc7HLVa4+Z9b3Nx8f3Bvf6yPEmCTmnECJcAmteMMSoBN6qcmcT6+p1Bhpszb58zB7v5YHyXAJjXjBEqATWrHGZQAm9RPReIsL2SQOAicEyKH9VECbFIzTqAE2KR2nEEJsEn9PJw49xc4u8TZBQ7v0B/rowTYpGacQAmwSe04gxJgk/p5NHHWv6nZBsrtdztfX58fy72e/SKH9VECbFIzTqAE2KR2nEEJsEn9PJY4c6pMNomz2XaPn/U9+mN9lACb1IwTKAE2qR1nUAJsUj+PJc7mFc42caaMmSNmeovtyS9yWB8lwCY14wRKgE1qxxmUAJvUT1XizK9g1okz75pvT3dZ3eMJWB8lwCY14wRKgE1qxxmUAJvUT0XifOAdtBsmDG8/BeujBNikZpxACbBJ7TiDEmCT+nk4ca4ps0+c6WXP8i7a9Lbac3+Rw/ooATapGSdQAmxSO86gBNikfh5LnH+mjDlMnCVgpnfZTJw/h01qxgmUAJvUjjMoATapnwcTZ7JPnF3ATBue+9EB1kcJsEnNOIESYJPacQYlwCb10ylxli0mzl/FJjXjBEqATWrHGZQAm9RPa+JMv7ZZtux+sfMMrI8SYJOacQIlwCa14wxKgE3qx8RRJ2xSM06gBNikdpxBCbBJ/bQmzm7L/Dc7y12egPVRAmxSM06gBNikdpxBCbBJ/Zg46oRNasYJlACb1I4zKAE2qR8TR52wSc04gRJgk9pxBiXAJvWTKnH+z/99EOujBNikZpxACbBJ7TiDEmCTjvwfruE/SpU4//73QayPEmCTmnECJcAmteMMSoBNOvIv1/AftSZO18+qmTgjY5OacQIlwCa14wxKgE06Mnji/PP/HsT6KAE2qRknUAJsUjvOoATYpCNcwX/WKXGWb7nZfdHaM7A+SoBNasYJlACb1I4zKAE2qZ/uibP7orVnYH2UAJvUjBMoATapHWdQAmxSP62JswuY3RetPQProwTYpGacQAmwSe04gxJgk/rplDi7fx/HxPlz2KRmnEAJsEntOIMSYJP6aU2cadOSONNdVvd4AtZHCbBJzTiBEmCT2nEGJcAm9dMpce4Jc8oHBzxJM2KTmnECJcAmteMMSoBN6qc5cfDRgVN+jeNJmhGb1IwTKAE2qR1nUAJsUj/NiTN/x8BtW8s3DlRgfZQAm9SMEygBNqkdZ1ACbFI/jyXOHCQb08ua6UXO5ebH9Arn2S9xPEkzYpOacQIlwCa14wxKgE3qpyFxpk8LFPb97gsHKrA+SoBNasYJlACb1I4zKAE2qZ/HEmd+7bIx58pu59MDx5M0IzapGSdQAmxSO86gBNikfjokzv19NW5/HtZHCbBJzTiBEmCT2nEGJcAm9fNY4swfGdhYfZfaOnOe/MHoK9ZHCbBJzTiBEmCT2nEGJcAm9fNg4vzk8/MWOp/P/szADeujBNikZpxACbBJ7TiDEmCT+umUOCdjfZQAm9SMEygBNqkdZ1ACbFI/Jo46YZOacQIlwCa14wxKgE3qx8RRJ2xSM06gBNikdpxBCbBJ/Zg46oRNasYJlACb1I4zKAE2qR8TR52wSc04gRJgk9pxBiXAJvVj4qgTNqkZJ1ACbFI7zqAE2KR+TBx1wiY14wRKgE1qxxmUAJvUj4mjTtikZpxACbBJ7TiDEmCT+jFx1Amb1IwTKAE2qR1nUAJsUj8mjjphk5pxAiXAJrXjDEqATerHxFEnbFIzTqAE2KR2nEEJsEn9mDjqhE1qxgmUAJvUjjMoATapHxNHnbBJzTiBEmCT2nEGJcAm9WPiqBM2qRknUAJsUjvOoATYpH5MHHXCJjXjBEqATWrHGZQAm9SPiaNO2KRmnEAJsEntOIMSYJP6MXHUCZvUjBMoATapHWdQAmxSPyaOOmGTmnECJcAmteMMSoBN6sfEUSdsUjNOoATYpHacQQmwSf2YOOqETWrGCZQAm9SOMygBNqkfE0edsEnNOIESYJPacQYlwCb1Y+KoEzapGSdQAmxSO86gBNikfkwcdcImNeMESoBNascZlACb1I+Jo07YpGacQAmwSe04gxJgk/oxcdQJm9SMEygBNqkdZ1ACbFI/Jo46YZOacQIlwCa14wxKgE3qx8RRJ2xSM06gBNikdpxBCbBJ/Zg46oRNasYJlACb1I4zKAE2qR8TR52wSc04gRJgk9pxBiXAJvVj4qgTNqkZJ1ACbFI7zqAE2KR+TBx1wiY14wRKgE1qxxmUAJvUj4mjTtikZpxACbBJ7TiDEmCT+jFx1Amb1IwTKAE2qR1nUAJsUj8mjjphk5pxAiXAJrXjDEqATerHxFEnbFIzTqAE2KR2nEEJsEn9mDjqhE1qxgmUAJvUjjMoATapHxNHnbBJzTiBEmCT2nEGJcAm9WPiqBM2qRknUAJsUjvOoATYpH5MHHXCJjXjBEqATWrHGZQAm9SPiaNO2KRmnEAJsEntOIMSYJP6MXHUCZvUjBMoATapHWdQAmxSPyaOOmGTmnECJcAmteMMSoBN6sfEUSdsUjNOoATYpHacQQmwSf2YOOqETWrGCZQAm9SOMygBNqkfE0edsEnNOIESYJPacQYlwCb1Y+KoEzapGSdQAmxSO86gBNikfkwcdcImNeMESoBNascZlACb1I+Jo07YpGacQAmwSe04gxJgk/oxcdQJm9SMEygBNqkdZ1ACbFI/Jo46YZOacQIlwCa14wxKgE3qx8RRJ2xSM06gBNikdpxBCbBJ/Zg46oRNasYJlACb1I4zKAE2qR8TR52wSc04gRJgk9pxBiXAJvVj4qgTNqkZJ1ACbFI7zqAE2KR+TBx1wiY14wRKgE1qxxmUAJvUj4mjTtikZpxACbBJ7TiDEmCT+jFx1Amb1IwTKAE2qR1nUAJsUj8mjjphk5pxAiXAJrXjDEqATerHxFEnbFIzTqAE2KR2nEEJsEn9mDjqhE1qxgmUAJvUjjMoATapHxNHnbBJzTiBEmCT2nEGJcAm9WPiqBM2qRknUAJsUjvOoATYpH5MHHXCJjXjBEqATWrHGZQAm9SPiaNO2KRmnEAJsEntOIMSYJP6MXHUCZvUjBMoATapHWdQAmxSPyaOOmGTmnECJcAmteMMSoBN6sfEUSdsUjNOoATYpHacQQmwSf2YOOqETWrGCZQAm9SOMygBNqkfE0edsEnNOIESYJPacQYlwCb1Y+KoEzapGSdQAmxSO86gBNikfkwcdcImNeMESoBNascZlACb1I+Jo07YpGacQAmwSe04gxJgk/oxcdQJm9SMEygBNqkdZ1ACbFI/Jo46YZOacQIlwCa14wxKgE3qx8RRJ2xSM06gBNikdpxBCbBJ/Zg46oRNasYJlACb1I4zKAE2qR8TR52wSc04gRJgk9pxBiXAJvVj4qgTNqkZJ1ACbFI7zqAE2KR+TBx1wiY14wRKgE1qxxmUAJvUj4mjTtikZpxACbBJ7TiDEmCT+jFx1Amb1IwTKAE2qR1nUAJsUj8mjjphk5pxAiXAJrXjDEqATerHxFEnbFIzTqAE2KR2nEEJsEn9mDjqhE1qxgmUAJvUjjMoATapHxNHnbBJzTiBEmCT2nEGJcAm9WPiqBM2qRknUAJsUjvOoATYpH5MHHXCJjXjBEqATWrHGZQAm9SPiaNO2KRmnEAJsEntOIMSYJP6MXHUCZvUjBMoATapHWdQAmxSPyaOOmGTmnECJcAmteMMSoBN6sfEUSdsUjNOoATYpHacQQmwSf2YOOqETWrGCZQAm9SOMygBNqkfE0edsEnNOIESYJPacQYlwCb1Y+KoEzapGSdQAmxSO86gBNikfkwcdcImNeMESoBNascZlACb1I+Jo07YpGacQAmwSe04gxJgk/oxcdQJm9SMEygBNqkdZ1ACbFI/Jo46YZOacQIlwCa14wxKgE3qx8RRJ2xSM06gBNikdpxBCbBJ/Zg46oRNasYJlACb1I4zKAE2qR8TR52wSc04gRJgk9pxBiXAJvVj4qgTNqkZJ1ACbFI7zqAE2KR+TBx1wiY14wRKgE1qxxmUAJvUj4mjTtikZpxACbBJ7TiDEmCT+jFx1Amb1IwTKAE2qR1nUAJsUj8mjjphk5pxAiXAJrXjDEqATerHxFEnbFIzTqAE2KR2nEEJsEn9mDjqhE1qxgmUAJvUjjMoATapHxNHnbBJzTiBEmCT2nEGJcAm9dMrcT6/vy6+Pz+45xlYHyXAJjXjBEqATWrHGZQAm9RPl8T5uMXNzSf3PgHrowTYpGacQAmwSe04gxJgk/rpkTgfq7y5eP7LHNZHCbBJzTiBEmCT2nEGJcAm9dMhcRg4J0QO66ME2KRmnEAJsEntOIMSYJP6aU+cfeB8ffM+vbE+SoBNasYJlACb1I4zKAE2qZ/2xJl+h/P9ufp9zrNf5LA+SoBNasYJlACb1I4zKAE2qZ/mxPncvKyZI4f36oz1UQJsUjNOoATYpHacQQmwSf00J86UMdOt+S22J7/IYX2UAJvUjBMoATapHWdQAmxSP82Js3mJc3/J8+SPSLM+SoBNasYJlACb1I4zKAE2qZ/WxGHC8PZzsD5KgE1qxgmUAJvUjjMoATapn9bEmd5Uu7+LNr+ttr1Xb6yPEmCTmnECJcAmteMMSoBN6qdT4iwbTJy/ik1qxgmUAJvUjjMoATapn9bE2QXMtOG5Hx1gfZQAm9SMEygBNqkdZ1ACbFI/fRJn9SefJs5fxSY14wRKgE1qxxmUAJvUT2PiTL+2WSUOf7HzFKyPEmCTmnECJcAmteMMSoBN6sfEUSdsUjNOoATYpHacQQmwSf00Js72GwcupsR57sejWR8lwCY14wRKgE1qxxmUAJvUj4mjTtikZpxACbBJ7TiDEmCT+jFx1Amb1IwTKAE2qR1nUAJsUj+pEuff/0qSBvEv1/AfmTiSpN84PXH6flbNxJGkYQyeOJKkN9YncVbfcrP7ojVJki66J85ugyRJF42Jsw+Y2+3V22ySJF10Shz++zgmjiQJWhNn+nj0PXHO+TdAJUnj6ZQ494TxgwOSpLLWxOFHB263fFNNkkStiTO/qJkypuUbByRJb605ceYXOd8f//zzuY0fSZIWzYkzv6xZ8wsHJEk77Ykzf0DawJEkRTokzvy+moEjSQp0SJz7R6SvLr/PkSRpp0vi/PPxeQudbz+kJkk60CdxJEn6iYkjSTqHiSNJOoeJI0k6h4kjSTqHiSNJOoeJI0k6h4kjSTqHiSNJOoeJI0k6h4kjSTqHiSNJOoeJI0k6h4kjSTqHiSNJOoeJI0k6h4kjSTqHiSNJOoeJI0k6h4kjSTqHiSNJOoeJI0k6h4kjSTqHiSNJOoeJI0k6h4kjSTqHiSNJOoeJI0k6h4kjSTqHiSNJOoeJI0k6h4kjSTqHiSNJOoeJk8vH59fX19f39wd3SNLwTJxUvi95c8U9kobyeb2a/dlxy8TJZAkcT9RUPm6rx9f35yd36a/5eDBJ/NmxxMR5juubY1/f3By7Pejm5xNaZ1n35evLzHl7q5/8bj9mbK7GafOPV+h0P27+40yc53j0rNyYHvSLR+p5PtZtsTd/wPYnjKvVL1bn8+HHs2C6Hzf/cSbOczx6Vq6tTmXfvEljHzguIm+ukDirl7bzCfHjJTrdj5v/OBPnOaazrSpxphN9ecz0ubXNnXSu4urDO1Wyr7kVe35/i7xT4tx+G/T3PpRq4jzHdLZVnU/Tu8fLhtttV6YXWl7hfFx6efvwel1b9+xrbuXEuXd9uokH7cX32/18+UeYOM+Bk/QhJk4698BZfqC9rBRVbd2zr7lNYXBr0PRDxsW0+/rq5IEXJ9tHkYmjnqazrep8MnHSmT+0tOlj8/th9jW3TeIcnQU/mx7FzRMTRz395hw1cbKZX+J0bsFTBlU3TJyHf3OzNT2Kmycmjnqazrby+TS9UP/GGWziZDO/oVJu49VBL++u+7+3u4/6+sNY15GCp6JOmDjz1XzQl/nbBbZ/tbNJnOsdvjd3MHHU03S2lc6n5X3h1QKy3nix27Bfn/R0U+0PV5pyL6cfii8du30gab33uK8/jbX7gURPskucqfTTecBvr9n+veiyb7qxvsN8Jt03TErrxJsycZ7j+EzC+Tndg2ftslTNOI6e7se/9Sv3cl6yPrd/y3Pbe9jXn8aa98/b9TQ/JM62EaW/17rdcbqxuZRvY+4ec/wzzdsxcZ5jOpP2a9VuxSkvRCZOAvOrDm6f7Xq0fcX6uV1YbovN7jEPjnV/BTRt1vPsEmcqfSlxduFxcXskt15d27p7kImjRtOZtEuc3cIynbncbuIkMFX+6A3NXYvuTbotWdx/XVa4cXrIbvPhWNNmPQ8TBz95bG4VGhcmzvVhJo6J09t0JjFx1u/TTF9HfDs9eeKu/grg5mjZ0/NMpT9YDg57uf6VzOUXMvOt685yXx8a62Z5AnoSJA4/sbhuxOquqx8Sb5f9/eblDLrvve5bdq02/g0mznMcnEnT5unWdBLOO3FzvrdZ8yI/fCh22jvd2jTvnhK3h84DbR+57uv2DuWxbunFM0r9bRJnCZJ59/rmbefUytuNe4fmx00fA5nGmc+maZI/108T5zmmkw3n07T04Jycz0ETJ5f4gwNRL+eUQGfn+95urfr6yFieB6fhy8obJsn1/2+dnXbc2njv0/zAzd77bhNHPU0nG86n6Sy73978hGTiJBMnTtRLvC0z395+NnbV1wfGWp8Xeq5S4qw+rz5tWf3/dg/uV0wqE0d98Wxbb13epbmddSZOTnHiRL1EwswjHSbOA2MdPAs9wT5xNn+UO21b/f92T+l+F9vr28RRT9PZtj2fsPDwZ1sTJ5cwccJeVibOI2N5FpxnnzjrwCkkzvbt0tL9LkycCxPnOaazrZg4O9NuEyeXRxJn57rzd4mzc93JsfR0+8TZXITTptVdp73bN8lNnCIT5zmms217PhXO5Ktpt4mTyxwExcU+7CVT4ofEqRpLT7d6WXn/pNruPdBbd+aPA1wu9Omu906t73dh4lyYOM8xnW0mzsBMnD9qlTj3q3J1Ka+7M99YKd9vd32bOOppOttMnJFN7Sk2IOwlU8LEGcomce6Zct+9ub17R/QgmXbXt4mjnnan38XByjLfycRJZmpIsQFhL5kSv0uc8lh6um3i7H6dN92+3ZhfAs1WV/zmfrvr28RRT/vz7+fFw8RJZl5NuP0i7CV3PpY4j42lp9smzu6l7nT7+v94ibP554vW97swcS5MnOeYzrbt+YSFh0ycZObXHqWGhb1kSvyQOFVj6emQOPNpMF/M083r/1+v2e/btyDi390zcYpMnOeYzjacT7eNRxFi4mQzdbHYgWDXLiV+SJz9hhWOpadD4synwbZ91+v01tiD3qzud2XiXJg4zzGdbcXEKb5Lszsjf1iIdIL5bbXSkhL1kinxWOI8Npaejokzv8iZbq5u3fYc9Gb7KF7fJo56ms42nE/TOXdwhu4SZ7dB57q/S7/p4+e1I1EvmRJInF1fa8bS0zFx8NmB6dbqnuXYWN3vatv28K3UN2biPMd0tuFUnH9YWm3+XE7so4WofD7rBPOLnNXCcFkpLh2JesmUKCfO8siasfR0TJz5ap4uzdWNzQcHvr+/P9f/msTqflfFxPlz72CYOM9xPw3vrqfWvILdfsf4cfu3hOfH7BJndeZ/uOK8xNy9e8euN67LStBLpgQSZ9/XirH0dLvE2f5EMN1Y///aPXOm2/dRcH2v7v6X/tUjE+c55tNv5bJ58zPRbH7MUeJws85TbNhtUSnuuj2KKVFOnNUjKsbS0+0SZ27PrQnr9pQaN8fHdPM+Sjlxrv5Qd02c51ifTpPDZWp+zC5xljd1TJxXKTVsWlNKu24PYkrwPft9Xx8fS0+3S5x7w643Su3ZmCJnusVB5pvrlv+h7po4z7FeUyZHyxTXodUo6zuvNutM+1bOP8Qe9pIpwcQp9PXhsfR0+8SZu3Pt/PT/mx1btwdtbhSu79WJ9Ye6a+I8x/5M5AcE5s2r3x9f92xOvtUw6806060vd+sGHfXyun3V2tv9ltulvj46lp7t9oXRm5LfQuh2DV+b9339/6mP0/b7F02vfri83W+5XXrlZOLouT6/b+fa9+fHjwvJbbn7/ku/W0xo1bHjPdwVKvX1t2PpVaZ+4fb6M4eh8ncVvDcTR5J+Y3qJs9vwlxKklokjSb8x/cJnt+HR1zh/kYkjSb/BgJl/Pbe9l9ZMHEn6jfmj0bffxk1/HvwHv0eghokjSb+x/0TqlW+qBUwcSfqV0t9/GjghE0eSfmf7R1QGzs9MHEn6Jb6x5gejf2DiSNKvfXxOX0px+ccKuFNk4kiSzmHiSJLOYeJIks5h4kiSzmHiSJLOYeJIks5h4kiSzmHiSJLOYeJIks5h4kiSzmHiSJLOYeJIks5h4kiSzmHiSJLOYeJIks5h4kiSzmHiSJLOYeJIks5h4kiSzmHiSJLOYeJIks5h4kiSzmHiSJLOYeJIks5h4kiSzmHiSJLOYeJIks5h4kiSzmHiSJLOYeJIks5h4kiSzmHiSJLOYeJIks5h4kiSzjEljiRJz2fiSJLO8R8jR5J0hv/85/+TJOkMJo4k6RwmjiTpHCaOJOkcJo4k6RwmjiTpHCaOJOkcJo4k6RwmjiTpHCaOJOkcJo4k6RwmjiTpHCaOJOkcJo4k6RwmjiTpHCaOJOkcJo4k6RwmjiTpHCaOJOkcJo4k6RwmjiTpHCaOJOkcJo4k6RwmjiTpHCaOJOkcJo4k6RwmjiTpHCaOJOkcJo4k6RwmjiTpHCaOJOkcJo4k6RwmjiTpHCaOJOkcJo4k6RwmjiTpHCaOJOkcJo4k6RwmjiTpHCaOJOkcJo4k6RwmjiTpHCaOJOkcJo4k6RwmjiTpHCaOJOkcJo4k6RwmjiTpHCaOJOkcJo4k6RwmjiTpHCaOJOkcJo4k6RwmjiTpHCaOJOkcJo4k6RwmjiTpHCaOJOkcJo4k6RwmjiTpHCaOJOkcJo4k6RwmjiTpHCaOJOkcJo4k6RwmjiTpHCaOJOkc//nPfyVJej4DR5J0EhNHknSOS+L8I0nSc5k4kqRzmDiSpHOYOJKkc5g4kqRzmDiSpHOYOJKkc5g4kqRzmDiSpHOYOJKkc5g4kqRzmDiSpHOYOJKkc5g4kqRzmDiSpHOYOJKkc5g4kqRzmDiSpHOYOJKkc5g4kqRzmDiSpHOYOJKkc5g4kqRzmDiSpHOYOJKkc5g4kqRzmDiSpHOYOJKkc5g4kqRzmDiSpHOYOJKkc5g4kqRzmDiSpHOYOJKkc5g4kqRzmDiSpHOYOJKkc5g4kqRzmDiSpHOYOJKkc5g4kqRzmDiSpHOYOJKkc5g4kqRzmDiSpHOYOJKkc5g4kqRzmDiSpHOYOJKkc5g4kqRzmDiSpHOYOJKkc5g4kqRzmDiSpHOYOJKkc5g4kqRzmDiSpHOYONJTfXx+fX19fX9/cIf095g40jN9XPLmysiRTBzpme6B8/XFXdKfY+Lo3X2vFv1j33xYH8tLHF/kSCaO3t16zY988oFdmDjSiomjN3f9xf0DTBzp6UwcvTkTR0rDxNGbM3GkNEwcvbnXJo6fVZNWTBy9uRcnzjK9L3EkE0dv7tHEeVYgfHxfP579+azxpYGYOHp3L/17HEkrJo7+llX+cJekJzNx9LeYONLrmDj6W0wc6XVMHP0tDyTO5+ftl/1fX9+fj/3C/+Pz+oDv7+oPvH3Mcz04kzQ0E0d/y0+J87H7oEEhCm6ff5vzZfPNbbt/B+cWRvc7b2zn2j1Uejcmjv6WOHH2eXPBsLhHzCUidg/Z3nv5cDZHKXyIzszRmzNx9LeEibPPgMk2Ce4p8lH8aurNB62XIfH568IDdxNJb8bE0d8SJc5h4CAJVolT/PvSdbYcJU45cApPSnojJo7+liBxgsDZRs6SOAcPWd35IHGOAscXOXprJo7+luPEOUiP2SoKii9sNkqjbhJnc+81E0fvzMTR33KYOD/FyCowfrrr+lMC5cQ5TjcTR+/MxNHfcpg462X/9lHmj22yLFnwc+IsYxcTZ/Oe2vXT1x/zJhNH78zE0d9ylDjrVx3LK5RNtpS3zpkx/d3NvGm+bzFxVnddtt4yx8TROzNx9LccJc6yebPoF/8Nz23i3P+IZh059yApJc5q0N0nqde3pXdj4uhvOUicVYhs/1Jzdf/7jk3ilF+63AcvJc7qftuXNB/8ox3pvZg4+lsOEudg8/ZFzrxtnTjriCi9IColznIvA0Z/i4mjv+UgWpat/DKaZU8pcbaRUXhBFCcOJ5Pem4mjv6WcOKsMWW3lrvl1y+G9C1FUSJzDh0vvzsTR31JOnPLWq9VbZfMrkuPIWHYEiVPYJP0NJo7+lnK2RCGwPKB74vimmv4YE0d/Szlxlo37ENjvO06c/eiFxFnus59Memsmjv6WfSZcRCGw7Jszw8SRfsfE0d+yz4SLKAT2mWHiSL9j4uhv2WfCRRQC+8wwcaTfMXH0t+wz4SIKgX1mmDjS75g4+lv2mXARhcDyCD85ILUxcfS37DPhIgqB/b7jxFl2mDjSnomjv+WnxDnh73H2d5L+CBNHf0s5ccpbr1bfOfDjt9wUvp+gkDjBZNJ7M3H0t5SX+8KXpxV2BZt2O4LECSaT3puJo7/lx8Th71biyNi+L7Zsj/61gmAy6b2ZOPpbyolT+ldwdnvu8bCKjE3klEYpJE7pn9G533t7W3ovJo7+lnLilF6d3JTuv06cVeSsk6TwS5vljqX7XVwG8H02vTMTR39LKUEQIutFf3X3JRw2iXPfvg6c5fVQKXE2r5GW2a539X02vTMTR3/LQeJs4gIhsNu6TZxbSnxsNxZGKL8Y+vr6vA78Od3RxNE7M3H0txwkziZbvj4/LimwDZHV+19MnL0lN0qJs35bjUwcvTMTR3/LUeJsX3cUrO77c+KUXiWtEieYzMTROzNx9LccJU6UAhfrX+78mDir2CgmzvYV1YaJo3dm4uhvOUycIAX4mbKfEqecLZshDiczcfTOTBz9LceJc5wCzIH1X4Cu7zVb3/cgcQ5fUa3vJL0bE0d/S5A4x69d8Ecyq/sVHrP6vPNx4vzzUcwqziS9FxNHf0uUOAcxsI0KJM7u1QruvYzI98v2WYWwkt6OiaM/5nvKgNufwRD+rObr65tBwcTZvhu3z4z7fNyxm2v/WOnNmDjS1sfnHBLfpbjZJ879zze/yykW+Jgf+f1Znkp6KyaOVGuXOJIeYuJItUwc6XdMHKmWiSP9jokj1TJxpN8xcaRaJo70OyaOVMvEkX7HxJFqmTjS75g4Ui0TR/odE0eqZeJIv2PiSLVMHOl3TByplokj/Y6JI9UycaTfMXGkWiaO9DsmjlRt+sbng3/xQNIBE0eSdA4TR5J0DhNHknQOE0eSdA4TR5J0DhNHknQOE0eSdA4TR5J0DhNHknQOE0eSdA4TR5J0DhNHknQOE0eSdA4TR5J0DhNHknQOE0eSdA4TR5J0DhNHknQOE0eSdA4TR5J0DhNHknQOE0eSdA4TR5J0DhNHknQOE0eSdA4TR5J0DhNHknQOE0eSdA4TR5J0DhNHknQOE0eSdA4TR5J0DhNHknQOE0eSdA4TR5J0DhNHknQOE0eSdA4TR5J0DhNHknQOE0eSdA4TR5J0DhNHknQOE0eSdA4TR5J0DhNHknQOE0eSdA4TR5J0DhNHknQOE0eSdI5eifPx+XXx/f3JPZIkXVQmzsf3NVi+ECy3uJl2fWx2SZJ0VZc4H0uwrHNliqHZ92qXJEk3dYmzei2zShwEjpEjSSqoSpzVS5xV4uwCZ/sCSJKki6rEWWfLPVTmGPr8WF4D+SJHkkQ1iXPLlil27okzhczt9j1+1o+TJKkuca5Z84nEmTJmjpj5s2yrh0mSVJc4t2yZM2VOnOmNNL7kWR4mSdJFReJck+STicOE4W1Jkq4eT5zpJQ4SZ3pTbXkXbdrtL3IkSVuPJ84cJMXEWQJmepfNxJEkbT2cOLckWV7ETImzC5hpgx8dkCRtPZw492ApJs7yJ58mjiSp6NHEub/EQeLwr3P2v9iRJOniwcS55cj1vTMTR5L0Gw8mzi1YVv87Z8ztxj5x/Hi0JGnrscRZvcQxcSRJv/JY4qxe4pg4kqRfeShxbilS/M1N18T597+SpEH8yzX8Rw8lziZDTBxJ0rMSZ/MS55mfVTNx9Hf8j/fBQ9Nf8ZzE2b5oeWLiSH8Hl+2B8dCkIw8kzvYlTjlxlm+52X3RmqQCLtsD46FJRx5InPmfkt4rJc7ui9YkFXDZHhgPTTrSlDgfhYDZfdGapAIu2wPjoUlHOiXO7t/HMXGkEJftgfHQpCOtiTN9rGBJnGnXZgRJxGV7YDw06cgDiTOHyN5q53xfPzggPYTL9sB4aNKRRxJnC2+b4aMD/hpHegiX7YHx0KQjzYkzf8fA7XbLNw5IfwmX7YHx0KQjzYkz3768yvmYf+XjSxzpB1y2B8ZDk460J878smbFLxyQfsJle2A8NOlIe+LsP8tm4Eg/4rI9MB6adKRD4tzfVzNwpIdx2R4YD006Up84H9eA2Xz8+bZp4gejpQdw2R4YD006Up84RZ+ft9D59DMD0kO4bA+MhyYd6ZQ4kupw2R4YD006YuJIL8Fle2A8NOmIiSO9BJftgfHQpCMmjvQSXLYHxkOTjpg40ktw2R4YD006YuJIL8Fle2A8NOmIiSO9BJftgfHQpCMmjvQSXLYHxkOTjpg40ktw2R4YD006YuJIL8Fle2A8NOmIiSO9BJftgfHQpCMmjvQSXLYHxkOTjpg40ktw2R4YD006YuJIL8Fle2A8NOmIiSO9BJftgfHQpCMmjvQSXLYHxkOTjpg40ktw2R4YD006YuJIL8Fle2A8NOmIiSO9BJftgfHQpCMmjvQSXLYHxkOTjpg40ktw2R4YD006YuJIL8Fle2A8NOmIiSO9BJftgfHQpCMmjvQSXLYHxkOTjpg40ktw2R4YD006YuJIL8Fle2A8NOmIiSO9BJftgfHQpCMmjvQSXLYHxkOTjpg40ktw2R4YD006YuJIL8Fle2A8NOmIiSO9BJftgfHQpCMmjvQSXLYHxkOTjpg40ktw2R4YD006YuJIL8Fle2A8NOmIiSO9BJftgfHQpCMmjvQSXLYHxkOTjpg40ktw2R4YD006YuJIL8Fle2A8NOmIiSO9BJftgfHQpCMmjvQSXLYHxkOTjpg40ktw2R4YD006YuJIL8Fle2A8NOmIiSO9BJftgfHQpCMmjvQSXLYHxkOTjpg40ktw2R4YD006YuJIL8Fle2A8NOmIiSO9BJftgfHQpCMmjvQSXLYHxkOTjpg40ktw2R4YD006YuJIL8Fle2A8NOmIiSO9BJftgfHQpCMmjvQSXLYHxkOTjpg40ktw2R4YD006YuJIL8Fle2A8NOmIiSO9BJftgfHQpCMmjvQSXLYHxkOTjpg40ktw2R4YD006YuJIL8Fle2A8NOmIiSO9BJftgfHQpCMmjvQSXLYHxkOTjpg40ktw2R4YD006YuJIL8Fle2A8NOmIiSO9BJftgfHQpCMmjvQSXLYHxkOTjpg40ktw2R4YD006YuJIL8Fle2A8NOmIiSO9BJftgfHQpCMmjvQSXLYHxkOTjpg40ktw2R4YD006YuJIL8Fle2A8NOmIiSO9BJftgfHQpCMmjvQSXLYHxkOTjpg40ktw2R4YD006YuJIL8Fle2A8NOmIiSO9BJftgfHQpCMmjvQSXLYHxkOTjpg40ktw2R4YD006YuJIL8Fle2A8NOmIiSO9BJftgfHQpCMmjvQSXLYHxkOTjpg40ktw2R4YD006YuJIL8Fle2A8NOmIiSO9BJftgfHQpCMmjvQSXLYHxkOTjpg40ktw2R4YD006YuJIL8Fle2A8NOmIiSO9BJftgfHQpCMmjvQSXLYHxkOTjpg40ktw2R4YD006YuJIL8Fle2A8NOmIiSO9BJftgfHQpCMmjvQSXLYHxkOTjpg40ktw2R4YD006YuJIL8Fle2A8NOmIiSO9BJftgfHQpCMmjvQSXLYHxkOTjpg40ktw2R4YD006YuJIL8Fle2A8NOmIiSO9BJftgfHQpCMmjvQSXLYHxkOTjpg40ktw2R4YD006YuJIL8Fle2A8NOmIiSO9BJftgfHQpCMmjvQSXLYHxkOTjpg40ktw2R4YD006YuJIL8Fle2A8NOmIiSO9BJftgfHQpCMmjvQSXLYHxkOTjpg40ktw2R4YD0068njifHx+fl18f35y13Xvbed3aack4rI9MB6adOTRxPm4Bsrk+wN7b3FzsFPSHpftgfHQpCOPJc7H9ypSrrGy2Y29252SCrhsD4yHJh15KHE2L3D2qcI4MnKkH3HZHhgPTTryUOKs3zSbLe+d7QJnvVNSEZftgfHQpCOPJ8719zOf93i5v46ZXwB9fizR5Isc6QdctgfGQ5OOPJo4988D3CNn3jndvO2/x8+8V1IRl+2B8dCkIw8mzuptMiTOlDFzxEyB5IscKcZle2A8NOn/b+9O1hu5siQIdyWZ1FZV/f7v2h8TgckAF4EA6vb1CPtXlYMvTCTiiENRyUMX58rxg5zlCC2fSDudpOVPLwaSbvGxXYxpUvL8xTl+rWa5Mbww/LWke/jYLsY0KXn14iyfVDt/Fm35EMgv5Ej/iI/tYkyTkvUX5/ArfBnn9MdeHOkf8bFdjGlS8vzFWQ7OcnFuDszyG37rgPSP+NguxjQpefriHL//OXzjgBdHeggf28WYJiXPXpzjwTlelOXLNueLc/OFHUl38LFdjGlS8tzFOf9ET/wfQr040nP42C7GNCl59OLgh6fx/35zc3H89mjpH/GxXYxpUvLgxbn+6dG3P4HAiyM9h4/tYkyTklUX5+I/9Ln8jhdHeg4f28WYJiUPXpzT90QvTj/Yc/n1ey7O3/+W9oKP7WJM0178zWf4jx69ODf/EZzrH3Lznovz17+kveBjuxjTtBd/8Rn+o0cvzsHH+b+PsxyZt36vmhdnt/gM68WyiMNiTNNe/LcvztVXdP788q0X59d/tFN8hvViWcRhMaZpL/gE/9nTF+d8cv58+8DND+68+UFr0s/4DOvFsojDYkyTkucvzulLOn8+jLm5ODc/aE36GZ9hvVgWcViMaVKy4uIcf3j0n4tzc2BuftCa9DM+w3qxLOKwGNOk5E0X5+a/j+PF0TP4DOvFsojDYkyTklcvzvLt0eeLs/zhxd+XfsRnWC+WRRwWY5qUvHBxDp9Jw4XxGwe0Bp9hvVgWcViMaVLy/MU5fa/a1f8h53hi/DKO1uAzrBfLIg6LMU1KHrk4H1f/75rT/wf0+IeXN+aVnzigHeMzrBfLIg6LMU1KHrk43x+3fH3++Sjm4/gptfOHMccL9Hnxp36Io+fwGdaLZRGHxZgmJY9enBunD3uuf6z09Z9Jj+EzrBfLIg6LMU1K1l6ci6Ny88ceHD2Lz7BeLIs4LMY0KXnk4tz+4Ojr70XDH3tw9DQ+w3qxLOKwGNOk5KGL8+viR0Z/+8TXaT4u/9hvjNbz+AzrxbKIw2JMk5LHLs6fo3M4K188N4c/XW7S3T+UfsJnWC+WRRwWY5qUPHxxpP8iPsN6sSzisBjTpMSLoxnwGdaLZRGHxZgmJV4czYDPsF4sizgsxjQp8eJoBnyG9WJZxGExpkmJF0cz4DOsF8siDosxTUq8OJoBn2G9WBZxWIxpUuLF0Qz4DOvFsojDYkyTEi+OZsBnWC+WRRwWY5qUeHE0Az7DerEs4rAY06TEi6MZ8BnWi2URh8WYJiVeHM2Az7BeLIs4LMY0KfHiaAZ8hvViWcRhMaZJiRdHM+AzrBfLIg6LMU1KvDiaAZ9hvVgWcViMaVLixdEM+AzrxbKIw2JMkxIvjmbAZ1gvlkUcFmOalHhxNAM+w3qxLOKwGNOkxIujGfAZ1otlEYfFmCYlXhzNgM+wXiyLOCzGNCnx4mgGfIb1YlnEYTGmSYkXRzPgM6wXyyIOizFNSrw4mgGfYb1YFnFYjGlS4sXRDPgM68WyiMNiTJMSL45mwGdYL5ZFHBZjmpR4cTQDPsN6sSzisBjTpMSLoxnwGdaLZRGHxZgmJV4czYDPsF4sizgsxjQp8eJoBnyG9WJZxGExpkmJF0cz4DOsF8siDosxTUq8OJoBn2G9WBZxWIxpUuLF0Qz4DOvFsojDYkyTEi+OZsBnWC+WRRwWY5qUeHE0Az7DerEs4rAY06TEi6MZ8BnWi2URh8WYJiVeHM2Az7BeLIs4LMY0KfHiaAZ8hvViWcRhMaZJiRdHM+AzrBfLIg6LMU1KvDiaAZ9hvVgWcViMaVLixdEM+AzrxbKIw2JMkxIvjmbAZ1gvlkUcFmOalHhxNAM+w3qxLOKwGNOkxIujGfAZ1otlEYfFmCYlXhzNgM+wXiyLOCzGNCnx4mgGfIb1YlnEYTGmSYkXRzPgM6wXyyIOizFNSrw4mgGfYb1YFnFYjGlS4sXRDPgM68WyiMNiTJMSL45mwGdYL5ZFHBZjmpR4cTQDPsN6sSzisBjTpMSLoxnwGdaLZRGHxZgmJV4czYDPsF4sizgsxjQp8eJoBnyG9WJZxGExpkmJF0cz4DOsF8siDosxTUq8OJoBn2G9WBZxWIxpUuLF0Qz4DOvFsojDYkyTEi+OZsBnWC+WRRwWY5qUeHE0Az7DerEs4rAY06TEi6MZ8BnWi2URh8WYJiVeHM2Az7BeLIs4LMY0KfHiaAZ8hvViWcRhMaZJiRdHM+AzrBfLIg6LMU1KvDiaAZ9hvVgWcViMaVLixdEM+AzrxbKIw2JMkxIvjmbAZ1gvlkUcFmOalHhxNAM+w3qxLOKwGNOkxIujGfAZ1otlEYfFmCYlXhzNgM+wXiyLOCzGNCnx4mgGfIb1YlnEYTGmSYkXRzPgM6wXyyIOizFNSrw4mgGfYb1YFnFYjGlS4sXRDPgM68WyiMNiTJMSL45mwGdYL5ZFHBZjmpR4cTQDPsN6sSzisBjTpMSLoxnwGdaLZRGHxZgmJV4czYDPsF4sizgsxjQp8eJoBnyG9WJZxGExpkmJF0cz4DOsF8siDosxTUq8OJoBn2G9WBZxWIxpUuLF0Qz4DOvFsojDYkyTEi+OZsBnWC+WRRwWY5qUeHE0Az7DerEs4rAY06TEi6MZ8BnWi2URh8WYJiVeHM2Az7BeLIs4LMY0KfHiaAZ8hvViWcRhMaZJiRdHM+AzrBfLIg6LMU1KvDiaAZ9hvVgWcViMaVLixdEM+AzrxbKIw2JMkxIvjmbAZ1gvlkUcFmOalHhxNAM+w3qxLOKwGNOkxIujGfAZ1otlEYfFmCYlXhzNgM+wXiyLOCzGNCnx4mgGfIb1YlnEYTGmSYkXRzPgM6wXyyIOizFNSrw4mgGfYb1YFnFYjGlS4sXRDPgM68WyiMNiTJMSL45mwGdYL5ZFHBZjmpR4cTQDPsN6sSzisBjTpMSLoxnwGdaLZRGHxZgmJV4czYDPsF4sizgsxjQp8eJoBnyG9WJZxGExpkmJF0cz4DOsF8siDosxTUq8OJoBn2G9WBZxWIxpUuLF0Qz4DOvFsojDYkyTEi+OZsBnWC+WRRwWY5qUeHE0Az7DerEs4rAY06TEi6MZ8BnWi2URh8WYJiVeHM2Az7BeLIs4LMY0KfHiaAZ8hvViWcRhMaZJiRdHM+AzrBfLIg6LMU1KvDiaAZ9hvVgWcViMaVLyxMX5+Pz97evrk3/y0x9KP+AzrBfLIg6LMU1KHr04y0U5uDkrV3/4gT+UfsRnWC+WRRwWY5qUPHhxvi5Oyp+z8k9/ev2H0s/4DOvFsojDYkyTkocuzsf1ReFV4Tny5OhZfIb1YlnEYTGmSclDF+fyk2ZH50+s3Ryc37/9xJqew2dYL5ZFHBZjmpQ8dHHu3JTzxzHHD4A+P86nyQ9y9Bw+w3qxLOKwGNOk5PGL831Rfn2ej8/xD5dfHj6sOZ2fy7n0Ez7DerEs4rAY06Tk0YtzOiGnk7P8znJjjn++/LEf5OgpfIb1YlnEYTGmSclDF+fz4gszp6/pLDdm+fXpLyx/evr70gP4DOvFsojDYkyTkocuzhVcHF4Y/lp6AJ9hvVgWcViMaVLy6sVZPql2/iza8mk1v5CjZ/AZ1otlEYfFmCYlb7o45wOzfJbNi6Nn8BnWi2URh8WYJiXrL87hKzc3B2b5Db91QM/gM6wXyyIOizFNSp6+OKefP3D4Jb9xwIujNfgM68WyiMNiTJOSpy/O6XvVDr9cvmxzvjg3X9iRfsZnWC+WRRwWY5qUPH1xjgdnuTFeHL0Dn2G9WBZxWIxpUvLsxcEn1a5/4sDlXzj9hvQzPsN6sSzisBjTpOTZi3M8OMcT48XRO/AZ1otlEYfFmCYlT16c48+4OX3SzIujd+AzrBfLIg6LMU1Knrs4p8+p8YfavOfi/P1v7RSfYb1YFnFYjGnai7/5DP/RUxfn9uC89+L89S994wu6F8siDnuxLOKwGNO0F3/xGf6jpy7O8eBcfCPaW79XzYtzwBd0L5ZFHPZiWcRhMaZpL/67F+fmizjvvji//qNvfEH3YlnEYS+WRRwWY5r2gk/wnz1xce4dnNsf3Hnzg9b0NL6ge7Es4rAXyyIOizFNSh6/OKf/FNv545l7F+fmB63paXxB92JZxGEvlkUcFmOalDx8ce5818C3mwNz84PW9DS+oHuxLOKwF8siDosxTUoevTjh4Nz+4M6bL+zoaXxB92JZxGEvlkUcFmOalDx4cdLBOX7/2vniLH/v6u/oOXxB92JZxGEvlkUcFmOalDx2cfLB4YXxGwfegC/oXiyLOOzFsojDYkyTkscuzvG7Bm4PDr91wC/jvAFf0L1YFnHYi2URh8WYJiUPXZzjwbn3kcvxw5/DjXnlJw7oiC/oXiyLOOzFsojDYkyTkkcuzulzateWr91cnKOP43+uzQ9xXsIXdC+WRRz2YlnEYTGmScnrF+fOn677gQM64gu6F8siDnuxLOKwGNOk5IWLc/zU2em/Q33kwXkRX9C9WBZx2ItlEYfFmCYlb7g4559GcODBeRVf0L1YFnHYi2URh8WYJiWPXByelMXFz1K7/Av3vr1AT+ELuhfLIg57sSzisBjTpOShi/Ozz8/D0fn0ewbegC/oXiyLOOzFsojDYkyTkjddHL0TX9C9WBZx2ItlEYfFmCYlXpwJ8QXdi2URh71YFnFYjGlS4sWZEF/QvVgWcdiLZRGHxZgmJV6cCfEF3YtlEYe9WBZxWIxpUuLFmRBf0L1YFnHYi2URh8WYJiVenAnxBd2LZRGHvVgWcViMaVLixZkQX9C9WBZx2ItlEYfFmCYlXpwJ8QXdi2URh71YFnFYjGlS4sWZEF/QvVgWcdiLZRGHxZgmJV6cCfEF3YtlEYe9WBZxWIxpUuLFmRBf0L1YFnHYi2URh8WYJiVenAnxBd2LZRGHvVgWcViMaVLixZkQX9C9WBZx2ItlEYfFmCYlXpwJ8QXdi2URh71YFnFYjGlS4sWZEF/QvVgWcdiLZRGHxZgmJV6cCfEF3YtlEYe9WBZxWIxpUuLFmRBf0L1YFnHYi2URh8WYJiVenAnxBd2LZRGHvVgWcViMaVLixZkQX9C9WBZx2ItlEYfFmCYlXpwJ8QXdi2URh71YFnFYjGlS4sWZEF/QvVgWcdiLZRGHxZgmJV6cCfEF3YtlEYe9WBZxWIxpUuLFmRBf0L1YFnHYi2URh8WYJiVenAnxBd2LZRGHvVgWcViMaVLixZkQX9C9WBZx2ItlEYfFmCYlXpwJ8QXdi2URh71YFnFYjGlS4sWZEF/QvVgWcdiLZRGHxZgmJV6cCfEF3YtlEYe9WBZxWIxpUuLFmRBf0L1YFnHYi2URh8WYJiVenAnxBd2LZRGHvVgWcViMaVLixZkQX9C9WBZx2ItlEYfFmCYlXpwJ8QXdi2URh71YFnFYjGlS4sWZEF/QvVgWcdiLZRGHxZgmJV6cCfEF3YtlEYe9WBZxWIxpUuLFmRBf0L1YFnHYi2URh8WYJiVenAnxBd2LZRGHvVgWcViMaVLixZkQX9C9WBZx2ItlEYfFmCYlXpwJ8QXdi2URh71YFnFYjGlS4sWZEF/QvVgWcdiLZRGHxZgmJV6cCfEF3YtlEYe9WBZxWIxpUuLFmRBf0L1YFnHYi2URh8WYJiVenAnxBd2LZRGHvVgWcViMaVLixZkQX9C9WBZx2ItlEYfFmCYlXpwJ8QXdi2URh71YFnFYjGlS4sWZEF/QvVgWcdiLZRGHxZgmJV6cCfEF3YtlEYe9WBZxWIxpUuLFmRBf0L1YFnHYi2URh8WYJiVenAnxBd2LZRGHvVgWcViMaVLixZkQX9C9WBZx2ItlEYfFmCYlXpwJ8QXdi2URh71YFnFYjGlS4sWZEF/QvVgWcdiLZRGHxZgmJV6cCfEF3YtlEYe9WBZxWIxpUuLFmRBf0L1YFnHYi2URh8WYJiVenAnxBd2LZRGHvVgWcViMaVLixZkQX9C9WBZx2ItlEYfFmCYlXpwJ8QXdi2URh71YFnFYjGlS4sWZEF/QvVgWcdiLZRGHxZgmJV6cCfEF3YtlEYe9WBZxWIxpUuLFmRBf0L1YFnHYi2URh8WYJiVenAnxBd2LZRGHvVgWcViMaVLixZkQX9C9WBZx2ItlEYfFmCYlXpwJ8QXdi2URh71YFnFYjGlS4sWZEF/QvVgWcdiLZRGHxZgmJV6cCfEF3YtlEYe9WBZxWIxpUuLFmRBf0L1YFnHYi2URh8WYJiVenAnxBd2LZRGHvVgWcViMaVLixZkQX9C9WBZx2ItlEYfFmCYlXpwJ8QXdi2URh71YFnFYjGlS4sWZEF/QvVgWcdiLZRGHxZgmJV6cCfEF3YtlEYe9WBZxWIxpUuLFmRBf0L1YFnHYi2URh8WYJiVenAnxBd2LZRGHvVgWcViMaVLixZkQX9C9WBZx2ItlEYfFmCYlXpwJ8QXdi2URh71YFnFYjGlS4sWZEF/QvVgWcdiLZRGHxZgmJV6cCfEF3YtlEYe9WBZxWIxpUuLFmRBf0L1YFnHYi2URh8WYJiVenAnxBd2LZRGHvVgWcViMaVLixZkQX9C9WBZx2ItlEYfFmCYlXpwJ8QXdi2URh71YFnFYjGlS4sWZEF/QvVgWcdiLZRGHxZgmJV6cCfEF3YtlEYe9WBZxWIxpUuLFmRBf0L1YFnHYi2URh8WYJiVenAnxBd2LZRGHvVgWcViMaVLixZkQX9C9WBZx2ItlEYfFmCYlXpwJ8QXdi2URh71YFnFYjGlS4sWZEF/QvVgWcdiLZRGHxZgmJV6cCfEF3YtlEYe9WBZxWIxpUuLFmRBf0L1YFnHYi2URh8WYJiVenAnxBd2LZRGHvVgWcViMaVLixZkQX9C9WBZx2ItlEYfFmCYlXpwJ8QXdi2URh71YFnFYjGlS4sWZEF/QvVgWcdiLZRGHxZgmJV6cCfEF3YtlEYe9WBZxWIxpUuLFmRBf0L1YFnHYi2URh8WYJiVenAnxBd2LZRGHvVgWcViMaVLixZkQX9C9WBZx2ItlEYfFmCYlXpwJ8QXdi2URh71YFnFYjGlS4sWZEF/QvVgWcdiLZRGHxZgmJV6cCfEF3YtlEYe9WBZxWIxpUuLFmRBf0L1YFnHYi2URh8WYJiVenAnxBd2LZRGHvVgWcViMaVLixZkQX9C9WBZx2ItlEYfFmCYlXpwJ8QXdi2URh71YFnFYjGlS4sWZEF/QvVgWcdiLZRGHxZgmJV6cCfEF3YtlEYe9WBZxWIxpUuLFmRBf0L1YFnHYi2URh8WYJiVenAnxBd2LZRGHvVgWcViMaVLixZkQX9C9WBZx2ItlEYfFmCYl77o4H5+/v319ffJP9DS+oHuxLOKwF8siDosxTUqeuzgfh7PC3/51ODcHXx/8Uz2JL+heLIs47MWyiMNiTJOSZy7Ox9dyVHhTjr9/vDn4Yz2JL+heLIs47MWyiMNiTJOSJy7O+QMZXBwcHE/Oq/iC7sWyiMNeLIs4LMY0KXn44pw+wLm5ODcHh39BT+ILuhfLIg57sSzisBjTpOTRi3P5lZrrg3L42s7v358f57/lBzkv4Qu6F8siDnuxLOKwGNOk5LGLc7wqi6uLc/V7p/Nz+Tf0JL6ge7Es4rAXyyIOizFNSh67OFcf4VxfnOXGHE/M8ik2P8h5BV/QvVgWcdiLZRGHxZgmJU9dnONHMJcX5/hHx18vf+Xib+hZfEH3YlnEYS+WRRwWY5qUPHFxPvAZtANeGP5az+MLuhfLIg57sSzisBjTpOThi/PnytxenOXDnvNn0ZZPq/mFnBfwBd2LZRGHvVgWcViMaVLy2MX5tdyYeHHOB2b5LJsX5wV8QfdiWcRhL5ZFHBZjmpQ8eHEWtxfn5sAsv+G3DryAL+heLIs47MWyiMNiTJOSN12c8+94cV7HF3QvlkUc9mJZxGExpknJqxdn+bLN+XduvrCjp/EF3YtlEYe9WBZxWIxpUuLFmRBf0L1YFnHYi2URh8WYJiWvXpyb3zn+f3bOf0XP4gu6F8siDnuxLOKwGNOkxIszIb6ge7Es4rAXyyIOizFNSrw4E+ILuhfLIg57sSzisBjTpGSqi/P3v/WNL+heLIs47MWyiMNiTNMQ//v/728+w3801cX561+3+M5djGkRh71YFnHYi2URh8WYlnBXjGkRh71Y9u0vPsN/9OrFeev3qnlxDjjsxbKIw14sizgsxrSEu2JMizjsxbJv5Rfn139uMbsY0yIOe7Es4rAXyyIOizEt4a4Y0yIOe7HsG5/gP3vTxTn/lJubH7T2ImYXY1rEYS+WRRz2YlnEYTGmJdwVY1rEYS+WrfP2i3Pzg9ZexOxiTIs47MWyiMNeLIs4LMa0hLtiTIs47MWydV69ODcH5uYHrb2I2cWYFnHYi2URh71YFnFYjGkJd8WYFnHYi2XrvOni3Pz3cbw4t5gWcdiLZRGHvVgWcViMaQl3xZgWcdiLZeu8enGW3zpfnOWvXPyN1zC7GNMiDnuxLOKwF8siDosxLeGuGNMiDnuxbJ03XZzThXn3Nw5s6A32+FuMw14sizjsxbKIw2JMS7grxrSIw14sW+fli4NvHXj3l3E29AZ7/C3GYS+WRRz2YlnEYTGmJdwVY1rEYS+WrfPyxTn+jIHD773yEwfuY3YxpkUc9mJZxGEvlkUcFmNawl0xpkUc9mLZOo9dnOMhubJ8WLN8kPP9y4/lI5w3foizoTfY428xDnuxLOKwF8siDosxLeGuGNMiDnuxbJ0XLs7y3QJ3/mzdDxy4j9nFmBZx2ItlEYe9WBZxWIxpCXfFmBZx2Itl6zx2cY4fu1w53pWbP3znwdnQG+zxtxiHvVgWcdiLZRGHxZiWcFeMaRGHvVi2zhsuzunzavz9t2B2MaZFHPZiWcRhL5ZFHBZjWsJdMaZFHPZi2TqPXZzjtwxcufhZapc3533fGP0Hs4sxLeKwF8siDnuxLOKwGNMS7ooxLeKwF8vWefDi/OTz83B0Pt/4PQMHzC7GtIjDXiyLOOzFsojDYkxLuCvGtIjDXixb500X57+H2cWYFnHYi2URh71YFnFYjGkJd8WYFnHYi2XreHHGYVrEYS+WRRz2YlnEYTGmJdwVY1rEYS+WrePFGYdpEYe9WBZx2ItlEYfFmJZwV4xpEYe9WLaOF2ccpkUc9mJZxGEvlkUcFmNawl0xpkUc9mLZOl6ccZgWcdiLZRGHvVgWcViMaQl3xZgWcdiLZet4ccZhWsRhL5ZFHPZiWcRhMaYl3BVjWsRhL5at48UZh2kRh71YFnHYi2URh8WYlnBXjGkRh71Yto4XZxymRRz2YlnEYS+WRRwWY1rCXTGmRRz2Ytk6XpxxmBZx2ItlEYe9WBZxWIxpCXfFmBZx2Itl63hxxmFaxGEvlkUc9mJZxGExpiXcFWNaxGEvlq3jxRmHaRGHvVgWcdiLZRGHxZiWcFeMaRGHvVi2jhdnHKZFHPZiWcRhL5ZFHBZjWsJdMaZFHPZi2TpenHGYFnHYi2URh71YFnFYjGkJd8WYFnHYi2XreHHGYVrEYS+WRRz2YlnEYTGmJdwVY1rEYS+WrePFGYdpEYe9WBZx2ItlEYfFmJZwV4xpEYe9WLaOF2ccpkUc9mJZxGEvlkUcFmNawl0xpkUc9mLZOl6ccZgWcdiLZRGHvVgWcViMaQl3xZgWcdiLZet4ccZhWsRhL5ZFHPZiWcRhMaYl3BVjWsRhL5at48UZh2kRh71YFnHYi2URh8WYlnBXjGkRh71Yto4XZxymRRz2YlnEYS+WRRwWY1rCXTGmRRz2Ytk6XpxxmBZx2ItlEYe9WBZxWIxpCXfFmBZx2Itl63hxxmFaxGEvlkUc9mJZxGExpiXcFWNaxGEvlq3jxRmHaRGHvVgWcdiLZRGHxZiWcFeMaRGHvVi2jhdnHKZFHPZiWcRhL5ZFHBZjWsJdMaZFHPZi2TpenHGYFnHYi2URh71YFnFYjGkJd8WYFnHYi2XreHHGYVrEYS+WRRz2YlnEYTGmJdwVY1rEYS+WrePFGYdpEYe9WBZx2ItlEYfFmJZwV4xpEYe9WLaOF2ccpkUc9mJZxGEvlkUcFmNawl0xpkUc9mLZOl6ccZgWcdiLZRGHvVgWcViMaQl3xZgWcdiLZet4ccZhWsRhL5ZFHPZiWcRhMaYl3BVjWsRhL5at48UZh2kRh71YFnHYi2URh8WYlnBXjGkRh71Yto4XZxymRRz2YlnEYS+WRRwWY1rCXTGmRRz2Ytk6XpxxmBZx2ItlEYe9WBZxWIxpCXfFmBZx2Itl63hxxmFaxGEvlkUc9mJZxGExpiXcFWNaxGEvlq3jxRmHaRGHvVgWcdiLZRGHxZiWcFeMaRGHvVi2jhdnHKZFHPZiWcRhL5ZFHBZjWsJdMaZFHPZi2TpenHGYFnHYi2URh71YFnFYjGkJd8WYFnHYi2XreHHGYVrEYS+WRRz2YlnEYTGmJdwVY1rEYS+WrePFGYdpEYe9WBZx2ItlEYfFmJZwV4xpEYe9WLaOF2ccpkUc9mJZxGEvlkUcFmNawl0xpkUc9mLZOl6ccZgWcdiLZRGHvVgWcViMaQl3xZgWcdiLZet4ccZhWsRhL5ZFHPZiWcRhMaYl3BVjWsRhL5at48UZh2kRh71YFnHYi2URh8WYlnBXjGkRh71Yto4XZxymRRz2YlnEYS+WRRwWY1rCXTGmRRz2Ytk6XpxxmBZx2ItlEYe9WBZxWIxpCXfFmBZx2Itl63hxxmFaxGEvlkUc9mJZxGExpiXcFWNaxGEvlq3jxRmHaRGHvVgWcdiLZRGHxZiWcFeMaRGHvVi2jhdnHKZFHPZiWcRhL5ZFHBZjWsJdMaZFHPZi2TpenHGYFnHYi2URh71YFnFYjGkJd8WYFnHYi2XreHHGYVrEYS+WRRz2YlnEYTGmJdwVY1rEYS+WrePFGYdpEYe9WBZx2ItlEYfFmJZwV4xpEYe9WLaOF2ccpkUc9mJZxGEvlkUcFmNawl0xpkUc9mLZOl6ccZgWcdiLZRGHvVgWcViMaQl3xZgWcdiLZet4ccZhWsRhL5ZFHPZiWcRhMaYl3BVjWsRhL5at48UZh2kRh71YFnHYi2URh8WYlnBXjGkRh71Yto4XZxymRRz2YlnEYS+WRRwWY1rCXTGmRRz2Ytk6XpxxmBZx2ItlEYe9WBZxWIxpCXfFmBZx2Itl63hxxmFaxGEvlkUc9mJZxGExpiXcFWNaxGEvlq3jxRmHaRGHvVgWcdiLZRGHxZiWcFeMaRGHvVi2jhdnHKZFHPZiWcRhL5ZFHBZjWsJdMaZFHPZi2TpenHGYFnHYi2URh71YFnFYjGkJd8WYFnHYi2XreHHGYVrEYS+WRRz2YlnEYTGmJdwVY1rEYS+WrePFGYdpEYe9WBZx2ItlEYfFmJZwV4xpEYe9WLaOF2ccpkUc9mJZxGEvlkUcFmNawl0xpkUc9mLZOl6ccZgWcdiLZRGHvVgWcViMaQl3xZgWcdiLZet4ccZhWsRhL5ZFHPZiWcRhMaYl3BVjWsRhL5at48UZh2kRh71YFnHYi2URh8WYlnBXjGkRh71Yto4XZxymRRz2YlnEYS+WRRwWY1rCXTGmRRz2Ytk6XpxxmBZx2ItlEYe9WBZxWIxpCXfFmBZx2Itl63hxxmFaxGEvlkUc9mJZxGExpiXcFWNaxGEvlq3jxRmHaRGHvVgWcdiLZRGHxZiWcFeMaRGHvVi2jhdnHKZFHPZiWcRhL5ZFHBZjWsJdMaZFHPZi2TpenHGYFnHYi2URh71YFnFYjGkJd8WYFnHYi2XreHHGYVrEYS+WRRz2YlnEYTGmJdwVY1rEYS+WrePFGYdpEYe9WBZx2ItlEYfFmJZwV4xpEYe9WLaOF2ccpkUc9mJZxGEvlkUcFmNawl0xpkUc9mLZOl6ccZgWcdiLZRGHvVgWcViMaQl3xZgWcdiLZet4ccZhWsRhL5ZFHPZiWcRhMaYl3BVjWsRhL5at48UZh2kRh71YFnHYi2URh8WYlnBXjGkRh71Yto4XZxymRRz2YlnEYS+WRRwWY1rCXTGmRRz2Ytk6XpxxmBZx2ItlEYe9WBZxWIxpCXfFmBZx2Itl63hxxmFaxGEvlkUc9mJZxGExpiXcFWNaxGEvlq3jxRmHaRGHvVgWcdiLZRGHxZiWcFeMaRGHvVi2jhdnHKZFHPZiWcRhL5ZFHBZjWsJdMaZFHPZi2TpenHGYFnHYi2URh71YFnFYjGkJd8WYFnHYi2XreHHGYVrEYS+WRRz2YlnEYTGmJdwVY1rEYS+WrePFGYdpEYe9WBZx2ItlEYfFmJZwV4xpEYe9WLaOF2ccpkUc9mJZxGEvlkUcFmNawl0xpkUc9mLZOl6ccZgWcdiLZRGHvVgWcViMaQl3xZgWcdiLZet4ccZhWsRhL5ZFHPZiWcRhMaYl3BVjWsRhL5at48UZh2kRh71YFnHYi2URh8WYlnBXjGkRh71Yto4XZxymRRz2YlnEYS+WRRwWY1rCXTGmRRz2Ytk6XpxxmBZx2ItlEYe9WBZxWIxpCXfFmBZx2Itl63hxxmFaxGEvlkUc9mJZxGExpiXcFWNaxGEvlq3jxRmHaRGHvVgWcdiLZRGHxZiWcFeMaRGHvVi2jhdnHKZFHPZiWcRhL5ZFHBZjWsJdMaZFHPZi2TpenHGYFnHYi2URh71YFnFYjGkJd8WYFnHYi2XreHHGYVrEYS+WRRz2YlnEYTGmJdwVY1rEYS+WrePFGYdpEYe9WBZx2ItlEYfFmJZwV4xpEYe9WLaOF2ccpkUc9mJZxGEvlkUcFmNawl0xpkUc9mLZOl6ccZgWcdiLZRGHvVgWcViMaQl3xZgWcdiLZet4ccZhWsRhL5ZFHPZiWcRhMaYl3BVjWsRhL5at48UZh2kRh71YFnHYi2URh8WYlnBXjGkRh71Yto4XZxymRRz2YlnEYS+WRRwWY1rCXTGmRRz2Ytk6XpxxmBZx2ItlEYe9WBZxWIxpCXfFmBZx2Itl63hxxmFaxGEvlkUc9mJZxGExpiXcFWNaxGEvlq3jxRmHaRGHvVgWcdiLZRGHxZiWcFeMaRGHvVi2jhdnHKZFHPZiWcRhL5ZFHBZjWsJdMaZFHPZi2TpenHGYFnHYi2URh71YFnFYjGkJd8WYFnHYi2XrvOvifH79/vb1+cE/eRGzizEt4rAXyyIOe7Es4rAY0xLuijEt4rAXy9Z5y8X5OJybg0/+6WuYXYxpEYe9WBZx2ItlEYfFmJZwV4xpEYe9WLbOOy7Ox8W9+fbWD3OYXYxpEYe9WBZx2ItlEYfFmJZwV4xpEYe9WLbOGy4OD857Tw6zizEt4rAXyyIOe7Es4rAY0xLuijEt4rAXy9Z5/eLcHpzfX/w7L2B2MaZFHPZiWcRhL5ZFHBZjWsJdMaZFHPZi2TqvX5zlazhfnxdfz3njBznMLsa0iMNeLIs47MWyiMNiTEu4K8a0iMNeLFvn5YvzefVhzfHk8G+tx+xiTIs47MWyiMNeLIs4LMa0hLtiTIs47MWydV6+OMuNWX51/BTb+z7IYXYxpkUc9mJZxGEvlkUcFmNawl0xpkUc9mLZOi9fnKsPcU4f8rzvW6SZXYxpEYe9WBZx2ItlEYfFmJZwV4xpEYe9WLbOqxeHF4a/fhmzizEt4rAXyyIOe7Es4rAY0xLuijEt4rAXy9Z59eIsn1Q7fRbt+Gm167/1AmYXY1rEYS+WRRz2YlnEYTGmJdwVY1rEYS+WrfOmi3P+DS9OxLSIw14sizjsxbKIw2JMS7grxrSIw14sW+fVi3NzYJbfeNu3DjC7GNMiDnuxLOKwF8siDosxLeGuGNMiDnuxbJ33XJyL/8unFydiWsRhL5ZFHPZiWcRhMaYl3BVjWsRhL5at8+LFWb5sc3Fx+IWdVzG7GNMiDnuxLOKwF8siDosxLeGuGNMiDnuxbB0vzjhMizjsxbKIw14sizgsxrSEu2JMizjsxbJ1Xrw41z9x4Ntycd727dHMLsa0iMNeLIs47MWyiMNiTEu4K8a0iMNeLFvHizMO0yIOe7Es4rAXyyIOizEt4a4Y0yIOe7FsHS/OOEyLOOzFsojDXiyLOCzGtIS7YkyLOOzFsnWmujh//UuSVOIvPsN/5MWRJK0x/OK893vVvDiSVKP84kiSNuw9F+fip9zc/KA1SZK+vf3i3PyGJEnfXrw4twfm8OuLT7NJkvTtTReH/30cL44kCV69OMu3R58uztv/G6CSpI1408U5XRi/cUCSdN+rF4ffOnD4lZ9UkyTRqxfn+EHNcmNe+YkDkqRNe/niHD/I+fr49evz+vxIknT28sU5flhzyR84IEm68frFOX6DtAdHkvRP3nBxjp9X8+BIkv7BGy7O6Vuk//j+eo4kSTfecnF+fXwejs6X36QmSQrec3EkSfqJF0eSNIYXR5I0hhdHkjSGF0eSNIYXR5I0hhdHkjSGF0eSNIYXR5I0hhdHkjSGF0eSNIYXR5I0hhdHkjSGF0eSNIYXR5I0hhdHkjSGF0eSNIYXR5I0hhdHkjSGF0eSNIYXR5I0hhdHkjSGF0eSNIYXR5I0hhdHkjSGF0eSNIYXR5I0hhdHkjSGF0eSNIYXR5I0hhdHkjSGF0eSNIYXR5I0hhdHkjSGF0eSNIYXRzvx8fn1+9vX5yf/SNIYXpzDY+j37z08hj6W1oOvrz00Lz6v0rccfnyHPvj6/Pzg39ik6/ftA/6drbnTPP0b24tzeltt+Sm0uHrf/OOLf2Wbbl+a078y17o+rQd7ODps/rb1lzR7G5J3f3Eu/o2Qf7Q9l++aRzt4GN05ONt9a9+7OAUPopex+NvWq9nbkLz7i3Pxxtr+s/ci9mz72XcfwvxLW3E39vfvr62/mRn8bfrH74vY25C894tz+fqc/o31sovYC/xbW3P+COfj+7H7cXibb/UJHC7OdoMXzP228eR7zdMn7/3iXH2ZlX+4OVedp0fTxi/t6eCcO7/Tp39prrS8WQ9foPtYzusf/JvbskRu9c16V2Pz3i/O4U223J2qt9way3sofrnx7x44/kvF1Vv3a7PRVxfn4je2/na+91beusbmnV+cw6vxa/nX4I3/y/7NxTk+i67/0sYcP8TZ9vP27ObinD/Iq3oyPWsPjdTYvPOLc/j3308+ireKmfz1Fh3PatXL8gW3F+d8ci5+b3N29mb+o7F55xfn+EJcXqZVb7oVlvfQ+OstWho3//Hr0Z2Ls4uru4PEG43N+744yyfVTv8WuPXH0vIeGn+9Qcd/v696Vb7i3sU5/kPY8vv33t7O3xqb931xjp9U28Wz97by+CC6/kvbsouvVV26d3H28E9hKax6+r6qsXnfF+f8BtvHp9WW99DjL5foLf+b7zF5L9834MXh729ZY/OuL87yOvz+n/v4tNryHrr8ag8f4hyTN/6GvXD34uzgc4vbL7zV2Lzri7P89Po//3t54/GvbMtl5On/G1j1/vqsPXwF49rdi1P5bHrO9gtvNTbv+uIc3l6Hh9EuPq22vIde2XbxDv7lHv7x4mz48B7fn8+2/zZvDN3zxbn4pNpOPq12ejGe8a9sjBfnYPnHsOF37+M79NmGYxcsbmje88W5/KRa578vPOvqnXOx7R8q7MU5WP4xzP9AWu34/ny24dgFi2/e7BPa88U5vI2O75fLj9/a9Lvp1TvnyZafxl6cg+Ufw4bfu4/vzWcbjl2w+ObNPqEdX5yrT6rt4htI77yH/rHhx7EX52D7/xiO78xnG45dsPjmzT6hHV+c60+q7eLZtCQuv/o8/aca8Nc2xO9VO1j+MWz4nXv7hbeW5gvzv5/v+OLwTVTzNltvSTz9+nhy5v83o7W8OH/s4P96tRTu8eJUNe/34hw/i3aDf3FDbgqPJ+fyL23LErjdm0p3L84OPmW8FFY9fV/V2Lzfi3P1X/+8VPX2e85SeP6N7T+Jljfzzi/ODv4pLO/JG3713mps3u/FWd5atzb8CZil8Pwb2//i1fY/ioO7F2f5h7Dhd+3Kp++rGpt3e3HiJ9W2/HC6Cdz+xTm+nbf8sL1y7+Ls4exu/j35jsbm3V6c5Y11T9Ub8ClL4Pk39vMV5S1/QunKnYtzfCtv+p/B0rjdF+8djc17vTh3Xpc7+NzDEnj+jR38y+8xcbtv1Wu379nHg7Plt3Ln0/dVjc17vTh3f8LA5r+Ozr49fO/w6Xl79br83Owb+ebinD5/vOkPcSqfvq9qbN7rxVneVte/ufmvalxXf+zg/wF6+U2J57v6/Ybe6hv5+uJ8nr9eue2DU/n0fVVj804vzs2/CB4sb8HN/iv/0kdV77HPO3V+/XnDLv9hoK1Gp2+J4fv61rD321bfxkeNmTu9OHc/qbb9T6sdX4nXtv4sOn1e7UrVy/QJ4eJs/Y18932br++tWTKr3pV3enGWNxV/e+ufVlvyrm019uzuydlq9v2Ls/Vn7/337a1XL5lV78r7vDjLI+j23/s2/p565+csbDX12m141av0GXfO6+GziRt3+ybe/jv3kln1vrzni3Pnv0W2vFxv/2Ab8DT6+txq6I3zz8n+Y8uPoqvSr6/PLbdeuHNpN/s6Pjq8V3e9gfd5cbRDn1+HZ/GO7qw0Gy+OJGkML44kaQwvjiRpDC+OJGkML44kaQwvjiRpDC+OJGkML44kaQwvjiRpDC+OJGkML44kaQwvjiRpDC+OJGkML44kaQwvjiRpDC+OJGkML44kaQwvjiRpDC+OJGkML44kaQwvjiRpDC+OJGkML44kaQwvjiRpDC+OJGkML44kaQwvjiRpDC+OJGkML44kaQwvjiRpDC+OJGkML44kaQwvjiRpDC+OJGkML44kaQwvjiRpDC+OJGkML44kaQwvjiRpDC+OJGkML44kaQwvjiRpjOXiSJL03+fFkSSN8T+eHEnSCP/zfxPAaZEaXwDjAAAAAElFTkSuQmCC;clipPath=inset(66.67% 0% 0% 0%);" vertex="1" parent="1">
          <mxGeometry x="350" y="180" width="424.8" height="248.42" as="geometry" />
        </mxCell>
        <mxCell id="iSGsZts2C27UwW_y3FLA-4" value="&lt;div&gt;Normative Target Distribution&lt;/div&gt;" style="text;html=1;align=left;verticalAlign=middle;whiteSpace=wrap;rounded=0;fontSize=28;fontStyle=1" vertex="1" parent="1">
          <mxGeometry x="350" y="140" width="420" height="30" as="geometry" />
        </mxCell>
      </root>
    </mxGraphModel>
  </diagram>
</mxfile>
